<?xml version="1.0" encoding="UTF-8"?>
<svg id="Livello_1" data-name="Livello 1" xmlns="http://www.w3.org/2000/svg" viewBox="0 0 508.53 193.45">
  <defs>
    <style>
      .cls-1, .cls-2, .cls-3, .cls-4 {
        fill: none;
      }

      .cls-5, .cls-6 {
        fill: #f9af08;
      }

      .cls-7 {
        fill: #0074bb;
      }

      .cls-8 {
        fill: #fff;
      }

      .cls-9 {
        fill: #fbecd3;
      }

      .cls-10 {
        fill: #f18508;
      }

      .cls-11 {
        fill: #3285c2;
      }

      .cls-12 {
        fill: #d41b1d;
      }

      .cls-13 {
        fill: #e30d17;
      }

      .cls-14 {
        fill: #e40520;
      }

      .cls-15 {
        fill: #e4121c;
      }

      .cls-16 {
        fill: #e30613;
      }

      .cls-17 {
        fill: #203657;
      }

      .cls-18 {
        fill: #349cd7;
      }

      .cls-19 {
        fill: #4b647d;
      }

      .cls-20 {
        fill: #496cb3;
      }

      .cls-2 {
        stroke: #fff;
        stroke-width: .05px;
      }

      .cls-3 {
        stroke: #f9af08;
        stroke-width: .16px;
      }

      .cls-6 {
        stroke: #f18508;
        stroke-width: 0px;
      }

      .cls-4 {
        stroke: #e30613;
        stroke-width: 1.09px;
      }
    </style>
  </defs>
  <g>
    <path class="cls-8" d="m.3,0h156.46v110.07s-.91,57.92-78.23,83.38c0,0-72.17-20.92-78.53-83.38L.3,0Z"/>
    <g>
      <path class="cls-20" d="m8.85,10.59h139.33v98.02s-.81,51.58-69.67,74.26c0,0-64.27-18.63-69.94-74.26l.27-98.02Z"/>
      <path class="cls-19" d="m2.8,3.1h151.45v106.54s-.88,56.06-75.72,80.71c0,0-69.85-20.25-76.02-80.71L2.8,3.1Z"/>
      <path class="cls-17" d="m8.58,108.61c5.67,55.63,69.94,74.26,69.94,74.26,68.86-22.68,69.67-74.26,69.67-74.26V10.59H8.85l-.27,98.02Z"/>
      <g>
        <path class="cls-8" d="m68.03,148.18v6.39h1.24v1.69h-4.91v-1.69h1.67v-4.01c-.57.36-1.18.66-1.86.9l-.53-1.11,2.99-2.17h1.39Z"/>
        <path class="cls-8" d="m71.38,152.24c.37.05.71.06,1.07.06,1.15,0,1.72-.4,1.72-1.22,0-.67-.42-1.16-1.32-1.16-1.04,0-1.82.48-2.29.87l-1.08-1.32c.42-.32.94-.63,1.44-.84.71-.29,1.47-.46,2.21-.46,1.93,0,3.34,1.15,3.34,2.69,0,.84-.36,1.59-1.02,2-.2.12-.29.17-.57.28,1.16.39,1.84,1.27,1.84,2.35,0,2.13-2.24,3.62-5.45,3.62-.48,0-.7,0-1.28-.08l-.5-1.44c.48.09.68.11,1.18.11,2.15,0,3.62-.97,3.62-2.38,0-.51-.25-.99-.68-1.18-.29-.12-.76-.19-1.44-.19-.2,0-.57,0-.79.01v-1.73Z"/>
        <path class="cls-8" d="m79.01,152.24c.37.05.71.06,1.07.06,1.15,0,1.72-.4,1.72-1.22,0-.67-.42-1.16-1.31-1.16-1.04,0-1.83.48-2.29.87l-1.08-1.32c.42-.32.94-.63,1.44-.84.71-.29,1.47-.46,2.21-.46,1.93,0,3.34,1.15,3.34,2.69,0,.84-.35,1.59-1.02,2-.2.12-.3.17-.57.28,1.16.39,1.84,1.27,1.84,2.35,0,2.13-2.24,3.62-5.45,3.62-.48,0-.7,0-1.28-.08l-.5-1.44c.48.09.68.11,1.18.11,2.15,0,3.62-.97,3.62-2.38,0-.51-.25-.99-.68-1.18-.29-.12-.76-.19-1.44-.19-.2,0-.57,0-.79.01v-1.73Z"/>
        <path class="cls-8" d="m91.95,146.62c-1.58.51-3.3,1.41-4.02,3.57.42-.34.99-.51,1.65-.51,1.87,0,3.31,1.42,3.31,3.26,0,2-1.58,3.53-3.62,3.53-2.26,0-3.88-1.81-3.88-4.36,0-.76.14-1.56.4-2.23.34-.88.96-1.78,1.73-2.51.91-.87,2.69-1.87,3.98-2.25l.45,1.49Zm-4.3,6.18c0,1.31.57,2.09,1.53,2.09s1.53-.74,1.53-1.9c0-.99-.54-1.62-1.41-1.62-.5,0-.99.15-1.61.51-.03.19-.05.57-.05.93Z"/>
      </g>
      <g>
        <path class="cls-8" d="m26.58,114.9v5.32c0,.5.05.79.14.97.19.36.57.56,1.11.56.71,0,1.17-.35,1.24-.94.02-.18.02-.29.02-.72v-5.18h1.65v5.45c0,.77-.01.92-.13,1.27-.21.64-1,1.53-2.75,1.53-1.23,0-2.14-.37-2.6-1.08-.27-.42-.35-.75-.35-1.53v-5.64h1.67Z"/>
        <path class="cls-8" d="m33.45,116.88c.14.24.22.5.22.75.23-.16.43-.3.69-.44.31-.16.72-.26,1.07-.26.66,0,1.25.35,1.43.86.08.22.12.48.12.85v4.36h-1.54v-3.88c0-.68-.12-.87-.52-.87-.31,0-.72.21-1.08.54v4.22h-1.56v-4.32c0-.51-.07-1-.21-1.4l1.39-.4Z"/>
        <path class="cls-8" d="m40.13,115.39c0,.54-.43.97-.97.97s-.95-.43-.95-.97.44-.97.98-.97.94.43.94.97Zm-.19,1.5v6.1h-1.56v-5.86l1.56-.25Z"/>
        <path class="cls-8" d="m42,116.93l.86,2.69c.13.4.3,1.05.38,1.43.05-.35.18-.92.36-1.51l.8-2.51h1.63l-2.18,5.96h-1.29l-2.17-5.87,1.6-.2Z"/>
        <path class="cls-8" d="m51.26,122.33c-.69.56-1.41.83-2.25.83-1.71,0-2.82-1.21-2.82-3.09,0-1.07.22-1.78.75-2.37.49-.55,1.08-.8,1.87-.8.69,0,1.34.23,1.73.63.55.56.79,1.36.79,2.61v.36h-3.45v.05c0,.92.45,1.44,1.26,1.44.54,0,1.04-.2,1.51-.59l.61.93Zm-1.55-2.97v-.07c0-.44-.05-.68-.19-.9-.15-.23-.37-.35-.69-.35-.59,0-.93.47-.93,1.29v.02h1.8Z"/>
        <path class="cls-8" d="m53.5,116.89c.14.25.22.51.25.85.22-.3.59-.63.89-.76.13-.06.34-.09.51-.09.23,0,.34.02.58.13l-.43,1.37c-.15-.08-.28-.12-.45-.12-.35,0-.66.16-.95.5v4.22h-1.56v-3.98c0-.8-.09-1.41-.22-1.75l1.4-.37Z"/>
        <path class="cls-8" d="m59.78,118.48c-.59-.3-1.02-.43-1.47-.43s-.76.23-.76.58c0,.3.2.47.75.61l.72.19c.73.19.98.41,1.19.68.22.28.33.62.33,1.01,0,1.23-1.02,2.07-2.55,2.07-.73,0-1.54-.23-2.41-.69l.56-1.14c.48.29,1.3.68,1.98.68.44,0,.79-.29.79-.68,0-.41-.29-.62-.92-.73l-.7-.13c-.4-.07-.89-.35-1.09-.61-.21-.26-.34-.69-.34-1.07,0-1.16.92-1.94,2.31-1.94.96,0,1.58.29,2.13.56l-.51,1.05Z"/>
        <path class="cls-8" d="m63.26,115.39c0,.54-.43.97-.97.97s-.96-.43-.96-.97.44-.97.98-.97.94.43.94.97Zm-.19,1.5v6.1h-1.56v-5.86l1.56-.25Z"/>
        <path class="cls-8" d="m66.95,118.1h-1v2.99c0,.76.14.96.68.96.14,0,.28-.04.56-.12l.2.93c-.45.19-.86.27-1.27.27-.79,0-1.42-.35-1.61-.87-.09-.26-.1-.37-.1-.92v-3.24h-.59v-1.07h.59c0-.58,0-.97.06-1.41l1.58-.4c-.06.55-.09,1.2-.09,1.8h1.4l-.4,1.07Z"/>
        <path class="cls-8" d="m68.89,117.25c.58-.24,1.08-.35,1.63-.35,1,0,1.69.37,1.92,1.04.08.24.12.43.1,1.07l-.03,2v.1c0,.64.1.89.56,1.22l-.83.96c-.36-.15-.69-.42-.84-.72-.1.12-.24.23-.36.31-.29.21-.71.33-1.2.33-1.33,0-2.05-.68-2.05-1.86,0-1.4.97-2.05,2.87-2.05.12,0,.19,0,.35.01v-.25c0-.66-.13-.89-.7-.89-.5,0-1.08.25-1.73.68l-.66-1.12c.28-.17.55-.31.97-.49Zm2.4-.75l-2.61-1.17.68-1.21,2.41,1.51-.48.86Zm-.37,3.88c-1.08,0-1.46.2-1.46.91,0,.47.29.78.69.78.29,0,.58-.15.82-.41l.02-1.28h-.07Z"/>
        <path class="cls-8" d="m81.09,120.82c0,1.47.12,1.94.22,2.18h-1.4c-.05-.09-.07-.19-.09-.35-.38.34-.84.5-1.38.5-1.51,0-2.47-1.18-2.47-3.03s1.04-3.15,2.55-3.15c.43,0,.77.11,1.06.34-.02-.13-.05-.54-.05-.89v-2.05l1.55.25v6.2Zm-2.38-2.6c-.7,0-1,.58-1,1.91s.27,1.7,1.08,1.7c.29,0,.62-.2.77-.39v-2.84c-.29-.26-.57-.39-.85-.39Z"/>
        <path class="cls-8" d="m84.35,115.39c0,.54-.43.97-.97.97s-.96-.43-.96-.97.44-.97.98-.97.94.43.94.97Zm-.19,1.5v6.1h-1.56v-5.86l1.56-.25Z"/>
        <path class="cls-8" d="m92.58,116.47c-.41-.3-.84-.45-1.29-.45-.55,0-1.08.27-1.37.7-.32.47-.46,1.14-.46,2.09,0,1.11.09,1.72.34,2.17.33.59.86.91,1.56.91.48,0,.91-.14,1.39-.52l.75,1.03c-.64.52-1.33.76-2.25.76-1.12,0-1.98-.36-2.64-1.12-.65-.73-.98-1.71-.98-2.9,0-1.01.18-1.82.55-2.52.63-1.18,1.79-1.88,3.1-1.88.8,0,1.61.26,2.05.64l-.73,1.11Z"/>
        <path class="cls-8" d="m94.88,117.25c.58-.24,1.08-.35,1.63-.35,1,0,1.69.37,1.92,1.04.08.24.12.43.11,1.07l-.04,2v.1c0,.64.11.89.56,1.22l-.83.96c-.36-.15-.69-.42-.84-.72-.12.12-.24.23-.36.31-.29.21-.71.33-1.2.33-1.33,0-2.05-.68-2.05-1.86,0-1.4.97-2.05,2.86-2.05.12,0,.22,0,.35.01v-.25c0-.66-.13-.89-.7-.89-.5,0-1.08.25-1.72.68l-.66-1.12c.32-.2.55-.31.97-.49Zm2.03,3.13c-1.08,0-1.46.2-1.46.91,0,.47.29.78.69.78.29,0,.58-.15.82-.41l.02-1.28h-.07Z"/>
        <path class="cls-8" d="m101.17,116.93c.1.16.15.3.21.61.41-.4.91-.61,1.45-.61.49,0,.9.16,1.21.49.08.08.16.19.23.29.55-.56,1.04-.78,1.69-.78.47,0,.91.14,1.18.37.34.29.44.64.44,1.46v4.24h-1.51v-3.94c0-.71-.08-.85-.49-.85-.29,0-.7.2-1.04.5v4.29h-1.48v-3.88c0-.75-.1-.92-.54-.92-.29,0-.69.15-1.02.46v4.34h-1.53v-4.16c0-.86-.06-1.23-.22-1.53l1.41-.38Z"/>
        <path class="cls-8" d="m113.65,122.33c-.69.56-1.41.83-2.25.83-1.71,0-2.82-1.21-2.82-3.09,0-1.07.22-1.78.75-2.37.49-.55,1.08-.8,1.87-.8.69,0,1.34.23,1.72.63.55.56.79,1.36.79,2.61v.36h-3.45v.05c0,.92.45,1.44,1.26,1.44.54,0,1.04-.2,1.51-.59l.61.93Zm-1.55-2.97v-.07c0-.44-.05-.68-.19-.9-.15-.23-.37-.35-.69-.35-.59,0-.93.47-.93,1.29v.02h1.8Z"/>
        <path class="cls-8" d="m115.88,116.89c.14.25.22.51.24.85.22-.3.59-.63.89-.76.13-.06.34-.09.51-.09.23,0,.34.02.58.13l-.43,1.37c-.15-.08-.28-.12-.45-.12-.35,0-.66.16-.96.5v4.22h-1.56v-3.98c0-.8-.09-1.41-.22-1.75l1.4-.37Z"/>
        <path class="cls-8" d="m120.36,115.39c0,.54-.43.97-.97.97s-.96-.43-.96-.97.44-.97.98-.97.94.43.94.97Zm-.19,1.5v6.1h-1.56v-5.86l1.56-.25Z"/>
        <path class="cls-8" d="m122.77,116.88c.14.24.22.5.22.75.23-.16.43-.3.69-.44.31-.16.72-.26,1.07-.26.66,0,1.25.35,1.43.86.08.22.12.48.12.85v4.36h-1.54v-3.88c0-.68-.12-.87-.52-.87-.31,0-.72.21-1.08.54v4.22h-1.56v-4.32c0-.51-.07-1-.21-1.4l1.39-.4Z"/>
        <path class="cls-8" d="m131.96,117.81c.48.56.69,1.21.69,2.18,0,1.03-.23,1.73-.75,2.31-.45.51-1.05.83-1.97.83-1.62,0-2.68-1.21-2.68-3.09s1.07-3.12,2.68-3.12c.85,0,1.51.29,2.03.9Zm-2.81.86c-.11.32-.16.73-.16,1.33,0,.69.07,1.2.2,1.5.14.33.49.49.79.49.68,0,.97-.61.97-2.01,0-.8-.1-1.33-.31-1.59-.15-.2-.4-.32-.68-.32-.37,0-.68.23-.8.61Z"/>
      </g>
      <g>
        <polygon class="cls-5" points="79.67 71.93 79.67 72.73 79.1 72.73 79.1 73.2 79.66 73.2 79.66 74.28 80.07 74.28 80.07 73.2 80.61 73.2 80.61 72.73 80.08 72.73 80.08 71.9 79.67 71.93"/>
        <path class="cls-7" d="m69.22,63.09s-.23.88-.2,1.41c0,0-.06.58.62,1.67,0,0-.03.87.64,1.7,0,0,.59.76.9,1,0,0,.56.41,1.44.61,0,0,.18.05.3.14,0,0,.82.64,1.28.79,0,0,.93.68,3.25.33,0,0,.26.36.81.56,0,0,1.25.5,1.38.81l.45.03s.35-.36.77-.51c0,0,.94-.21,1.31-.76,0,0,1.57.18,2.2,0,0,0,1.57-.44,2.36-1.46,0,0,1.13.15,2.28-.97,0,0,.8-.65.99-2.65,0,0,.88-1.14.21-2.77l-2.55,2.65s-.62,1.55-.72,2.04c0,0-2.71.49-3.74,1.63,0,0-1.48-.24-1.99-.09,0,0-.82.3-1.31,1,0,0-1.35-1.72-3.47-1.14,0,0-1.55-1.25-3.77-1.35l-.65-1.61-2.8-3.06Z"/>
        <path class="cls-18" d="m69.44,63.93s-.24,1.08.37,1.93c0,0,.23.32.87.56l1.29.49-.39-.88-1.92-2.16-.21.06Z"/>
        <path class="cls-18" d="m70.49,67.67s.93.3,1.84.33c0,0,1.4.09,1.7.15,0,0,1.09.27,1.47.68,0,0-1.22-.05-1.34-.02,0,0-1.2.18-1.44.24,0,0-.91-.06-1.26-.32,0,0-.71-.5-.97-1.08Z"/>
        <path class="cls-18" d="m74.17,70.01s1.92-.55,2.33-.73c0,0,1.54-.47,2.86.73,0,0-1.58.41-1.82.5,0,0-2.25.58-3.36-.5Z"/>
        <path class="cls-18" d="m80.29,70.27s.46-.73,1.31-.85c0,0,.88.05,1.43.21,0,0,1.4.61,2.18.53,0,0-.41.47-1.16.52,0,0-1.51.01-1.76-.09,0,0-.44-.23-1.99-.32Z"/>
        <path class="cls-18" d="m84.32,68.81s1.23-.52,1.99-.67c0,0,2.45-.12,3.1-1.05,0,0-.09,1.17-1.38,1.75,0,0-.65.39-2.34.24,0,0-.97-.15-1.37-.27Z"/>
        <path class="cls-18" d="m90,63.33s.33.79.26,1.4c0,0-.15.79-.62,1.22,0,0-1.82,1.08-2.05,1.14-.23.06.5-1.38.59-1.49.09-.11.15-.39.15-.39l1.26-1.43.41-.44Z"/>
        <path class="cls-10" d="m57.1,48.94s.92,2.57,2.5,4.08c0,0,2.06,1.91,2.21,2.28,0,0,1.07,1.07,1.07,3.13,0,0,.07,1.4-.77,2.32,0,0-.07-.48-.33-.48,0,0-.37-.04-.44.15,0,0-.81.04-1.21.48l-6.8-14.16-2.1-1.75v2.45l6.76,14.36s-.73.34-1.03.74c0,0-1.91-.83-2.45-1.47,0,0,.44,1.62,1.37,2.75,0,0-1.47.44-1.86.39,0,0,1.47,1.37,4.41,1.37,0,0,1.96.05,3.77-1.72,0,0,1.91-1.86,1.96-4.9,0,0,0-2.84-1.32-5.49,0,0-2.85-5.43-2.69-6.83,0,0-.1-4.23,2.06-6.49,0,0,1.51-1.44,4.21-1.98,0,0,5.05-.93,6.47-1.52,0,0,4.81-1.23,6.28-6.23,0,0,1.37,3.92,5,5.54,0,0,1.81,1.13,5,1.62,0,0,4.75.7,7.84,2.84,0,0,2.13,1.6,1.82,5.6,0,0-.64,3.53-1.76,5.54,0,0-1.86,3.63-1.96,5.49,0,0-.49,2.99.98,5.29,0,0,1.52,2.45,3.97,2.8,0,0,3.28.59,5.25-1.37,0,0-1.52-.15-1.86-.44,0,0,1.23-1.81,1.23-2.84,0,0-2.35,2.6-5,1.62,0,0-3.28-.54-3.33-4.41,0,0-.2-1.96,1.96-3.77,0,0,2.8-2.67,3.48-5.05,2.09-7.25-5.77-12.07-5.77-12.07,0,0-2.27-2.1-9.13-2.2,0,0,2.55-.49,4.02-4.31,0,0,1.23-3.29,2.11-3.87,0,0,.54-.59,2.26.29,0,0,2.01,1.37,1.37,3.43,0,0-.64,2.35-2.4,2.55l2.26.25s-.25,1.81-.83,2.35c0,0,3.14-1.32,3.63-3.73,0,0,.83-2.84-.88-4.85,0,0-.88-1.37-2.65-1.81,0,0-2.75-.89-5.15,1.91,0,0-.66.7-2.55,3.97,0,0-1.08,1.96-2.94,1.91,0,0-1.86.05-2.55-1.37,0,0,1.03,0,1.13-.88,0,0,.67-.12.34-.56,0,0,.44-.07.48-.66l.77-.77s.29-.26.62-.33l-.11-.29s1.32-1.8.88-3.13c0,0-.22-1.43-1.58-1.58,0,0-1.54.07-2.61-.22,0,0-.88-.51-2.06-.59,0,0,.11-1.06-.99-1.18v-.4s.36,0,.36,0v.26h.4v-.9h-.4v.24h-.38v-.4h.37v-.44h-1.1v.44h.33v.4h-.33v-.24h-.4v.9h.4v-.26h.33v.4s-.85.07-.92,1.14c0,0-1.73.4-2.32.7,0,0-1.91.33-2.58.22,0,0-1.36.22-1.36,2.1,0,0-.04,1.62.96,2.61l-.07.29s.18,0,.63.37c0,0,.4.55.88.74,0,0-.15.3.33.59,0,0-.07.44.37.52,0,0-.11.59.99.99,0,0-.62,1.51-2.5,1.29,0,0-2.24.07-4.3-4.3,0,0-1.1-2.1-3.46-3.01,0,0-2.61-.85-4.19.29,0,0-1.99,1.14-2.39,3.75,0,0-.51,4.49,4.05,5.99l-.99-2.39,2.28-.33s-2.76-.85-2.5-3.64c0,0,.15-2.17,2.83-2.72,0,0,.62-.07.99.33l.73,1.1.99,2.06s.81,2.13,1.73,3.02c0,0,.85,1.18,2.61,1.73,0,0-4.27-.04-7.21,1.51,0,0-9.38,4.07-7.5,12.91Z"/>
        <path class="cls-5" d="m83.02,32.43s1.14,1.73,1.54,2.06c0,0,1.36.11,2.28-.22,0,0,1.88-.44,3.05-2.65,0,0,1.4-3.24,1.84-4.04.44-.81,1.66-2.17,2.21-2.24,0,0-1.35-.08-3.12,1.68,0,0-1.59,2.14-2.21,3.39,0,0-.48,1.29-1.91,2.1,0,0-.62.59-1.76.55,0,0-1.18-.11-1.91-.63Z"/>
        <path class="cls-5" d="m75.6,32.32s-.88,1.8-1.47,2.1c0,0-2.1.15-3.2-.63,0,0-1.91-1.03-2.61-2.83,0,0-1.58-3.38-1.73-3.64,0,0-.84-1.36-1.95-1.84,0,0,1.21,0,2.61,1.14,0,0,1.36,1.14,2.35,3.31,0,0,.66,1.32,1.73,2.13,0,0,.63.77,2.24.84,0,0,.51.22,2.02-.59Z"/>
        <path class="cls-5" d="m85.31,35.12s2.9-.33,5.33.04c0,0,2.8.33,5.15,2.32,0,0,2.13,1.73,2.68,2.68,0,0-2.28-1.29-3.42-1.62,0,0-2.54-.74-3.38-.88,0,0-1.91-.26-2.83-.55,0,0-2.65-.99-3.53-1.99Z"/>
        <path class="cls-5" d="m73.39,35.01s-3.05-.33-5.52.22c0,0-2.32.44-4.26,1.76,0,0-1.66,1.29-3.35,3.35,0,0,1.4-.99,3.02-1.54,0,0,2.79-.88,3.57-1.03,0,0,2.68-.48,3.38-.81.7-.33,1.69-.59,3.16-1.95Z"/>
        <path class="cls-5" d="m55.34,61.96s.81,1.14,3.35,1.03c0,0,1.84,0,2.98-1.25,0,0,1.76-1.54,2.13-3.97,0,0,.4,1.69-.59,4.04,0,0-.48,1.62-2.24,2.61,0,0-.88.63-2.72.85,0,0-2.1-.04-3.31-.88,0,0,.92-.15,1.43-.51,0,0-.96-1.07-1.03-1.91Z"/>
        <path class="cls-5" d="m95.42,57.4s.11,2.5,2.46,4.41c0,0,.59.75,3.1.93,0,0,2.27-.31,2.97-1.05.7-.74-1.06,1.8-1.06,1.8l1.58.51s-1.51,1.1-3.82.85c0,0-2.13-.15-3.46-1.65,0,0-2.28-2.13-1.77-5.81Z"/>
        <path class="cls-5" d="m73.98,23.54s-.88-.37-1.65.81c0,0-.37.99,0,2.02,0,0,.44,1.21,1.03,1.66,0,0,.26.11.44-.18,0,0,.4-.22.7.15,0,0,.37,0,.15.29-.04.18-.15.04-.15.04l-.04-.15s-.29-.04-.29.22c0,0,.11.29.33.29,0,0,.52-.04.55-.44,0,0-.07.04-.33-.44-.26-.48.04-.55-.26-1.1,0,0-.7-2.35-.48-3.16Z"/>
        <g>
          <path class="cls-15" d="m73.24,24.92c.26,0,.47-.21.47-.47s-.21-.47-.47-.47-.47.21-.47.47.21.47.47.47Z"/>
          <path class="cls-5" d="m73.2,24.64c.1,0,.19-.08.19-.19s-.08-.19-.19-.19-.19.08-.19.19.08.19.19.19Z"/>
        </g>
        <g>
          <path class="cls-15" d="m73.65,27.57c.26,0,.47-.21.47-.47s-.21-.47-.47-.47-.47.21-.47.47.21.47.47.47Z"/>
          <path class="cls-5" d="m73.61,27.29c.1,0,.19-.08.19-.19s-.08-.19-.19-.19-.19.08-.19.19.08.19.19.19Z"/>
        </g>
        <polygon class="cls-15" points="73.1 25.23 73.83 25.74 73.39 26.55 72.58 26.11 73.1 25.23"/>
        <g>
          <path class="cls-5" d="m84.59,23.5s.87-.4,1.68.75c0,0,.4.98.07,2.02,0,0-.4,1.23-.97,1.69,0,0-.25.12-.45-.17,0,0-.41-.21-.69.17,0,0-.37.01-.14.3.04.18.15.03.15.03l.03-.15s.29-.05.3.21c0,0-.1.3-.32.31,0,0-.52-.02-.57-.42,0,0,.08.04.32-.45.24-.49-.06-.55.22-1.11,0,0,.62-2.38.37-3.18Z"/>
          <g>
            <path class="cls-15" d="m85.37,24.86c-.26,0-.48-.19-.48-.45,0-.26.19-.47.45-.48.26,0,.47.19.48.45,0,.26-.2.47-.45.48Z"/>
            <path class="cls-5" d="m85.4,24.58c-.1,0-.19-.08-.19-.18,0-.1.08-.19.18-.19.1,0,.19.08.19.18,0,.1-.08.19-.18.19Z"/>
          </g>
          <g>
            <path class="cls-15" d="m85.05,27.52c-.26,0-.48-.19-.48-.45,0-.26.19-.47.45-.48s.48.19.48.45c0,.26-.2.47-.45.48Z"/>
            <path class="cls-5" d="m85.08,27.24c-.1,0-.19-.08-.19-.18,0-.1.08-.19.18-.19.1,0,.19.08.19.18,0,.1-.08.19-.18.19Z"/>
          </g>
          <polygon class="cls-15" points="85.52 25.16 84.81 25.7 85.27 26.5 86.07 26.03 85.52 25.16"/>
        </g>
        <path class="cls-3" d="m74.38,23.54s-.07,2.43.66,3.71"/>
        <path class="cls-3" d="m84.35,23.41s0,2.43-.77,3.69"/>
        <path class="cls-3" d="m76,23.28s-.22,1.73.41,2.87"/>
        <path class="cls-3" d="m82.63,23.28s.18,1.73-.48,2.86"/>
        <g>
          <path class="cls-5" d="m74.71,23.39h.88s.04,2.21.51,3.05c0,0,.15.63-.37.7,0,0-.29.55.18.59,0,0,.33-.33.44,0,0,0,.4.48-.37.59,0,0-.59-.11-.55-.63,0,0-.04-.29-.18-.74,0,0-.88-1.87-.55-3.57Z"/>
          <polygon class="cls-15" points="75.19 24.98 75.6 25.27 75.35 25.73 74.89 25.48 75.19 24.98"/>
        </g>
        <g>
          <path class="cls-5" d="m83.85,23.33l-.88-.02s-.08,2.21-.57,3.04c0,0-.16.62.35.7,0,0,.28.56-.19.58,0,0-.32-.34-.44,0,0,0-.41.47.36.59,0,0,.59-.1.56-.61,0,0,.04-.29.2-.73,0,0,.92-1.86.62-3.56Z"/>
          <polygon class="cls-15" points="83.35 24.92 82.93 25.2 83.17 25.67 83.64 25.43 83.35 24.92"/>
        </g>
        <path class="cls-14" d="m77.36,24.9s-.18-1.47-.59-1.76c0,0-.22-.18-.33.11,0,0-.11.96,0,1.62.11.66.92.04.92.04Z"/>
        <path class="cls-14" d="m78.57,24.9s0-.83-.04-1.29c-.04-.45-.26-.59-.37-.7,0,0-.29-.18-.33.07,0,0-.22,1.03-.15,1.73.07.7.88.18.88.18Z"/>
        <path class="cls-12" d="m76.16,24.57l2.76-.18s.29,3.31-.66,3.57l-.07-.77-.26.04.04.7s-1.25-.33-1.8-3.35Z"/>
        <path class="cls-14" d="m81.21,24.82s.15-1.47.55-1.78c0,0,.22-.19.33.1,0,0,.13.95.03,1.62-.1.66-.92.06-.92.06Z"/>
        <path class="cls-14" d="m79.99,24.85s-.05-.9,0-1.29c.06-.39.27-.59.38-.71,0,0,.27-.19.31.07,0,0,.24,1.02.18,1.73-.06.7-.88.2-.88.2Z"/>
        <path class="cls-12" d="m82.41,24.5l-2.76-.13s-.22,3.31.74,3.55l.06-.77.26.03-.02.7s1.24-.36,1.73-3.38Z"/>
        <polygon class="cls-5" points="78.87 23.43 79.64 23.43 79.5 24.09 79.5 26.22 79.05 26.21 79.07 24.11 78.87 23.43"/>
        <path class="cls-1" d="m74.35,29.16s4.19-2.1,9.97-.11"/>
        <g>
          <path class="cls-5" d="m74.64,29.53s4.23-2.24,9.23-.07l-.4.18.04.51s-4.19-1.62-8.38.15l.04-.51-.51-.26Z"/>
          <path class="cls-15" d="m75.67,29.82c.14,0,.25-.11.25-.25s-.11-.25-.25-.25-.25.11-.25.25.11.25.25.25Z"/>
          <path class="cls-15" d="m82.91,29.82c.14,0,.25-.11.25-.25s-.11-.25-.25-.25-.25.11-.25.25.11.25.25.25Z"/>
          <polygon class="cls-15" points="79.15 28.61 79.57 28.9 79.31 29.36 78.85 29.11 79.15 28.61"/>
          <polygon class="cls-15" points="81.66 28.97 82 29.2 81.8 29.57 81.43 29.37 81.66 28.97"/>
          <polygon class="cls-15" points="76.74 28.99 77.08 29.22 76.88 29.59 76.51 29.39 76.74 28.99"/>
          <path class="cls-15" d="m80.46,29.35c.14,0,.25-.11.25-.25s-.11-.25-.25-.25-.25.11-.25.25.11.25.25.25Z"/>
          <path class="cls-15" d="m77.96,29.38c.14,0,.25-.11.25-.25s-.11-.25-.25-.25-.25.11-.25.25.11.25.25.25Z"/>
        </g>
        <path class="cls-10" d="m75.24,41.28s4.32-1.52,8.38-.12c0,0,.34-1.67.9-1.93,0,0,.32-.18.49.09,0,0,.12-.32-.08-.52,0,0,.53-.49.5-.99,0,0-.06-1.11-1.06-1.35l-1.48-.03s-.36-.58-1-.62l-1.28-.03s.43-.75-.27-1.08l-.82-.44v-.68h.26v-.33h-.27v-.31h-.34v.32h-.27v.32h.26v.67l-.8.49s-.59.26-.26,1.06l-1.2.05s-.99.19-1.01.63h-1.37s-1.17.17-1.2,1.35c0,0,.05.9.44.99,0,0-.15.32-.06.53,0,0,.23-.29.52-.11,0,0,.84.58,1.03,2.04Z"/>
        <path class="cls-15" d="m78.65,35.66c.18,0,.32-.14.32-.32s-.15-.32-.32-.32-.32.14-.32.32.14.32.32.32Z"/>
        <path class="cls-15" d="m80.04,35.64c.18,0,.32-.14.32-.32s-.14-.32-.32-.32-.32.14-.32.32.14.32.32.32Z"/>
        <path class="cls-5" d="m75.32,40.14l.21.7s3.25-1.31,7.85-.15l.15-.65s-4.06-1.28-8.21.11Z"/>
        <path class="cls-7" d="m75.72,37.04s-.8-.08-1.28.27c0,0-.47.38-.44.97,0,0-.17.43.77.7h.15s.02.38.02.38c0,0-.11,0-.09.12,0,0,0,.08.12.14,0,0,.56.23.65-.14,0,0,.05-.5-.29-.56,0,0-.03-.47.29-.47,0,0,.41.03.27.5,0,0-.11.35.05.44,0,0,.44.26.64-.14v-.2s-.41.12-.44-.29c0,0,.02-.37.21-.39,0,0-.71-1.13-.64-1.34Z"/>
        <path class="cls-7" d="m82.98,36.92s.8-.13,1.29.2c0,0,.49.35.5.94,0,0,.19.41-.73.75l-.15.03v.37s.11,0,.11.12c0,0,0,.08-.11.14,0,0-.55.26-.66-.1,0,0-.08-.5.25-.58,0,0,0-.47-.32-.45,0,0-.41.06-.24.52,0,0,.13.34-.02.44,0,0-.42.28-.65-.1v-.2s.41.1.41-.32c0,0-.04-.36-.24-.38,0,0,.65-1.17.56-1.37Z"/>
        <path class="cls-7" d="m79.03,36.39s-1.57-.17-1.99-.01c0,0-1.12.73-.18,1.51l.11.38s.73.35,0,.65c0,0,.39.84.94-.05,0,0,0-.3-.2-.41,0,0-.11-.49.27-.5,0,0,.41-.06.2.56,0,0,.12.99.93.32,0,0-.23.02-.32-.3,0,0,.01-.3.2-.38,0,0-.08-1.6.05-1.76Z"/>
        <path class="cls-7" d="m79.74,36.36s1.57-.15,1.99.01c0,0,1.11.75.16,1.51l-.11.38s-.74.34,0,.65c0,0-.41.83-.94-.06,0,0,0-.3.2-.41,0,0,.11-.49-.27-.51,0,0-.41-.07-.2.56,0,0-.14.99-.93.31,0,0,.23.02.32-.3,0,0-.01-.3-.19-.38,0,0,.1-1.6-.02-1.76Z"/>
        <path class="cls-15" d="m76.75,40.34c.11,0,.19-.09.19-.19s-.09-.19-.19-.19-.19.09-.19.19.09.19.19.19Z"/>
        <path class="cls-15" d="m80.45,40.06c.11,0,.19-.09.19-.19s-.09-.19-.19-.19-.19.09-.19.19.09.19.19.19Z"/>
        <path class="cls-15" d="m82.13,40.29c.11,0,.19-.09.19-.19s-.09-.19-.19-.19-.19.09-.19.19.09.19.19.19Z"/>
        <path class="cls-15" d="m78.44,40.11c.11,0,.19-.09.19-.19s-.09-.19-.19-.19-.19.09-.19.19.09.19.19.19Z"/>
        <rect class="cls-15" x="79.11" y="39.72" width=".61" height=".26"/>
        <rect class="cls-15" x="80.99" y="39.79" width=".61" height=".26"/>
        <rect class="cls-15" x="82.7" y="40.1" width=".61" height=".26"/>
        <rect class="cls-15" x="77.28" y="39.85" width=".61" height=".26"/>
        <rect class="cls-15" x="75.59" y="40.21" width=".61" height=".26"/>
        <polygon class="cls-8" points="51.66 45.89 52.67 46.82 58.8 59.48 58.75 59.97 52.44 47.08 52.12 47.26 58.89 61.13 59.05 61.61 58.63 61.65 51.82 47.23 51.66 45.89"/>
        <g>
          <path class="cls-10" d="m61.09,67.29c-.06-.65-.06-.03-.06-.03"/>
          <path class="cls-10" d="m61.03,67.26s-.33-.05-.37-.85c0,0-.53-.29-.44-1.19l-.05-.24.96-.49.18.06.11.14s.35.18.49.33c.14.15.14.43.11.62,0,0,.41.23.46.7,0,0,.53.26.44,1.02,0,0,.5,1-.24,1.31,0,0-.88.41-1.13-.73,0,0-.4,0-.46-.65"/>
        </g>
        <path class="cls-8" d="m60.66,64.95s.93.18,1.06.27v.34s-.99-.02-.99-.02c0,0-.36-.23-.29-.43.08-.2.21-.17.21-.17Z"/>
        <path class="cls-8" d="m61.04,66.53l1.16.09s.43.15.43.56l-1.22-.06s-.56-.24-.37-.59Z"/>
        <path class="cls-8" d="m62.27,68.45c.27,0,.49-.22.49-.49s-.22-.49-.49-.49-.49.22-.49.49.22.49.49.49Z"/>
        <path class="cls-10" d="m62.27,68.25c.16,0,.3-.13.3-.3s-.13-.3-.3-.3-.3.13-.3.3.13.3.3.3Z"/>
        <polygon class="cls-8" points="61.39 67.33 61.89 67.38 61.65 67.68 61.42 67.59 61.39 67.33"/>
        <path class="cls-8" d="m60.66,65.75s1.28.2,1.4.24c0,0,.23.24.14.43l-1.03-.05s-.53-.18-.5-.62Z"/>
        <path class="cls-9" d="m68.02,46.23c.23.03.46.5.46.5v1.54c-.36.41,0,.56,0,.56v1.54c-.01.4-.39.47-.39.47h-.71l.15.37,1-.4-.41.85.9.4-.84.35.41.88-1.05-.46v.49c.47.08.94.43.94.43.18.56-.24,1.76-.24,1.76-.29.24-.21.44-.21.44.3,1.08-.46,1.93-.46,1.93l-.82.08.09.41,1.06-.38-.5.93,1.08.55-1.11.21.41.94-.94-.46v.38s.53.03.53.03c.21.01.41.38.41.38v1.52c-.36.47,0,.79,0,.79,0,0,.03,1.03.02,1.32-.02.29-.26.82-.26.82l1.13-.05-.84.79.87.67.62,1.52c-.2.5.24.49.24.49.39.35.94,2.42.94,2.42l.88-.32-.21.84.76.03-.8.73.21.26.09-.14.52-.55c.2-.15.64.02.64.02l1.09.85c.18.15.03.44.03.44.11-.06.52.05.52.05l1.03.77,1,.85.62-.91.03,1.2.53-.03c.01-.58.35-.47.35-.47h1.61c.23-.01.29.23.29.23.01-.3.39-.41.39-.41l1.58-.02c.29-.01.38.46.38.46l.52.03-.03-1.08.73.75.87-.84s.82-.61,1-.71c.18-.11.55-.06.55-.06-.05-.27.01-.41.01-.41.84-.85,1.43-.96,1.43-.96.36-.02.88.65.88.65l.24-.26-.97-.58,1-.17-.23-.84.76.33c.11-.09.35-1.17.35-1.17.5-1.42.93-1.34.93-1.34-.23-.23-.12-.59-.12-.59l.62-1.35.82-.62-.56-.71,1.23.09v-.38s-.34-.03-.34-.03c-.23.01-.27-.3-.27-.3v-1.54c.39-.23-.08-.85-.08-.85l.02-1.28c0-.41.39-.52.39-.52l.64-.06-.2-.34-.87.41.49-.9-1.1-.26,1-.49-.49-.91,1.1.41-.03-.56c-.9.12-.99-.24-.99-.24-.38-.58-.3-1.96-.3-1.96-.49-.33-.56-1.49-.56-1.49-.18-.79,1.06-.96,1.06-.96l-.18-.39-.93.44.35-.88-.84-.35.93-.38-.44-.84,1.08.38.03-.44-.72-.05c-.46,0-.42-.41-.42-.41v-1.49c.35-.29-.03-.61-.03-.61l-.02-1.37c.02-.71.73-.67.73-.67l-.05-.55-.78-.14.56-.56-.91-.56.93-.02-.39-.96,1.02.59.32-1.07.32,1.11,1.26-.59-.59.96,1.08.33-.88.4.68.88-1-.35v.46c.2,0,.58.44.58.44v1.75c-.3.27.01.5.01.5l-.03,1.51c-.01.24-.43.34-.43.34l-.68.06v.44s1.08-.47,1.08-.47l-.47.97.9.3-.94.43.21.91c.55.81.41,1.92.41,1.92.15.08.27.43.27.43l.21,1.52c.03.5-1,.61-1,.61l.12.55,1.04-.46-.44.99.97.35-.96.35.46.9-.91-.44-.09.56s.62.03.84.03.33.53.33.53l.02,1.26c-.36.52-.06.68-.06.68v1.69c0,.46-.96.39-.96.39v.38s1.02.06,1.02.06l-.84.65.67.85-.97-.21-.04,1.03c.01.43-.43,1.32-.43,1.32-.12.29-.44.35-.44.35.11.2,0,.49,0,.49l-.59,1.31c-.17.27-.76.12-.76.12l-.41-.14-.33.46.87.5-1.02.26.34,1.02-.84-.55-.39.91-.32-1.06-.3.27c.29.38.08.75.08.75l-1.19,1.02c-.17.01-.24.07-.24.07,0,.3-.14.36-.14.36l-1.08.8c-.23.17-.7.03-.7.03l-.58-.56-.36.29.76.78-1.04-.05.02.68-.72-.44-.7.65v-.91h-.44s-.03.3-.03.5-.4.33-.4.33l-1.54.03c-.09-.11-.26-.15-.26-.15-.09-.02-.3.29-.3.29,0,0-1.02.09-1.51.09s-.62-.84-.62-.84l-.4-.03.03.85-.7-.59-.62.53-.08-.77-1.09.08.82-.77-.36-.3-.55.61c-.15.14-.59.01-.59.01l-1.25-.9c-.02-.18-.2-.35-.2-.35-.2.05-.43-.09-.43-.09l-.94-.82c-.26-.38.03-1.09.03-1.09l-.26-.06-.38.99-.38-.85-.87.49.3-.99-1-.21.87-.58-.34-.44-.49.17c-.38.06-.61-.08-.61-.08-.71-.84-.76-1.89-.76-1.89-.76-.47-.97-1.87-.97-1.87-.01-.06.09-.82.09-.82l-.99.17.62-.84-.75-.64,1.05-.05-.05-.38-.56-.08c-.36,0-.47-.46-.47-.46v-1.64c.35-.17-.05-.62-.05-.62,0,0-.01-1.11,0-1.34.02-.23.4-.49.4-.49l.73-.03-.03-.44-1.02.41.53-.94-1.02-.36,1-.37-.49-.96,1.11.46v-.38c-.97-.29-.94-.64-.94-.64-.06-.47.23-1.81.23-1.81.23-.09.17-.24.17-.24-.05-1.23.38-2.02.38-2.02l.21-.75-.99-.41.94-.38-.55-.88,1.13.42v-.39s-.64-.05-.64-.05c-.44-.05-.55-.52-.55-.52v-1.38c.32-.24-.05-.47-.05-.47v-1.73c0-.17.58-.47.58-.47v-.38s-1.05.26-1.05.26l.65-.84-.99-.46,1.08-.33-.59-.91,1.26.53.36-1.1.35,1.03.97-.61-.39.97,1.19-.11-1.03,1.93Zm-1.06-.56c.33,0,.59-.27.59-.59s-.26-.59-.59-.59-.59.26-.59.59.27.59.59.59Zm.27,7.06c.33,0,.59-.26.59-.59s-.26-.59-.59-.59-.59.26-.59.59.27.59.59.59Zm-1.32-4.44s.38.06.64.05c.26-.01.26-.18.26-.18v-.36h-.26l-.02.26c-.21.24-.33-.01-.33-.01v-.52c.14-.29.74,0,.74,0h.15c.55-.37.82.14.82.14v.36c-.23.17-.3-.05-.3-.05l-.05-.26h-.29s-.01.15-.01.33.18.27.18.27h.59c.21-.01.18-.17.18-.17v-1.19c0-.24-.24-.38-.24-.38h-1.72c-.11,0-.37.23-.37.23l.02,1.47Zm2.31.55s-.38-.06-.64-.04c-.26.02-.26.18-.26.18l.02.36h.24s.01-.26.01-.26c.21-.25.34.01.34.01v.52c-.13.29-.74,0-.74,0h-.15c-.54.37-.82-.13-.82-.13l-.02-.36c.24-.17.32.04.32.04l.05.26h.29s.01-.15.01-.34c0-.18-.18-.27-.18-.27h-.59c-.21.02-.18.17-.18.17,0,0,0,.94,0,1.19,0,.24.25.38.25.38,0,0,1.61,0,1.72,0,.11,0,.36-.23.36-.23l-.02-1.47Zm-1.62,11.01c.33,0,.59-.27.59-.59s-.27-.59-.59-.59-.59.27-.59.59.27.59.59.59Zm-1.35,2.72s.38.06.64.05c.26-.01.26-.18.26-.18v-.36h-.26v.26c-.23.24-.35-.02-.35-.02l.02-.52c.12-.29.73,0,.73,0h.15c.55-.37.82.14.82.14v.36c-.23.17-.3-.05-.3-.05l-.05-.26h-.29s-.02.15-.02.33.18.27.18.27h.59c.21-.01.18-.17.18-.17v-1.19c0-.24-.25-.38-.25-.38h-1.72c-.11,0-.37.23-.37.23l.02,1.47Zm2.31.55s-.38-.06-.64-.04c-.26.02-.26.18-.26.18l.02.37h.24s.01-.26.01-.26c.21-.24.34.01.34.01v.52c-.13.29-.74,0-.74,0h-.15c-.55.37-.82-.13-.82-.13l-.02-.36c.24-.17.32.04.32.04l.05.26h.29s.01-.16.01-.34c0-.18-.18-.27-.18-.27h-.59c-.21.02-.18.17-.18.17,0,0,0,.94,0,1.19,0,.24.25.38.25.38,0,0,1.61,0,1.72,0,.11,0,.36-.23.36-.23l-.02-1.47Zm-1.61-8.06s.34.1.57.12c.24.02.26-.13.26-.13l.03-.33-.22-.03-.05.23c-.22.19-.3-.05-.3-.05l.08-.46c.15-.25.66.09.66.09l.14.02c.54-.26.73.22.73.22l-.03.33c-.24.12-.28-.08-.28-.08v-.24s-.27-.04-.27-.04c0,0-.03.14-.05.3-.02.17.13.27.13.27l.54.07c.19.01.18-.13.18-.13,0,0,.11-.85.14-1.07.03-.22-.17-.37-.17-.37,0,0-1.46-.2-1.56-.21-.1-.01-.36.16-.36.16l-.17,1.34Zm1.88,1.05s-.33-.12-.57-.14c-.24-.03-.26.12-.26.12l-.04.33.22.04.05-.23c.23-.18.3.07.3.07l-.1.46c-.15.24-.66-.12-.66-.12l-.14-.02c-.55.24-.72-.25-.72-.25l.04-.33c.24-.11.28.09.28.09v.24l.26.05s.04-.13.07-.3c.03-.16-.12-.28-.12-.28l-.53-.09c-.19-.02-.19.12-.19.12,0,0-.15.85-.19,1.07-.04.22.16.38.16.38,0,0,1.45.26,1.54.27.1.02.37-.15.37-.15l.22-1.33Zm-.68,10.67c.29-.14.42-.5.27-.79-.14-.29-.49-.42-.79-.28-.29.14-.42.5-.27.79.14.29.49.42.79.28Zm-.05,2.63s.37-.11.6-.24c.23-.13.15-.28.15-.28l-.17-.32-.22.11.1.24c-.09.31-.31.13-.31.13l-.21-.47c-.02-.31.66-.32.66-.32l.14-.07c.34-.57.8-.23.8-.23l.17.32c-.15.26-.31.1-.31.1l-.15-.21-.26.12s.05.14.13.31c.08.16.28.17.28.17l.53-.26c.19-.11.09-.23.09-.23,0,0-.41-.85-.51-1.07-.1-.22-.38-.24-.38-.24,0,0-1.45.7-1.55.75-.1.05-.23.36-.23.36l.65,1.32Zm2.29-.44s-.37.11-.59.24c-.23.13-.15.28-.15.28l.18.32.22-.11-.1-.24c.09-.31.31-.13.31-.13l.21.47c.02.31-.66.32-.66.32l-.14.07c-.33.57-.8.24-.8.24l-.18-.32c.15-.26.31-.1.31-.1l.16.21.26-.13s-.05-.14-.13-.31c-.08-.16-.28-.17-.28-.17l-.53.26c-.18.11-.09.23-.09.23,0,0,.41.85.52,1.07.11.22.39.23.39.23,0,0,1.45-.71,1.54-.76.09-.05.23-.36.23-.36l-.66-1.32Zm1.41,3.63c.2-.25.16-.63-.09-.83-.25-.2-.63-.16-.83.09-.2.25-.16.63.09.83.26.2.63.16.83-.09Zm1.4,2.28s.25-.25.38-.45c.13-.2.02-.3.02-.3l-.25-.2-.13.18.17.16c.05.3-.19.24-.19.24l-.34-.32c-.13-.26.39-.54.39-.54l.08-.11c.05-.62.54-.53.54-.53l.25.2c-.02.28-.2.21-.2.21l-.2-.12-.16.22s.09.1.22.21c.12.11.28.03.28.03l.32-.44c.11-.17-.01-.23-.01-.23,0,0-.64-.56-.8-.7-.16-.14-.39-.04-.39-.04,0,0-.87,1.2-.92,1.28-.06.08-.04.41-.04.41l1,.86Zm1.95-1.17s-.23.23-.35.43c-.12.19-.01.28-.01.28l.24.19.12-.17-.16-.15c-.05-.29.18-.23.18-.23l.32.3c.12.25-.37.51-.37.51l-.08.11c-.04.59-.5.5-.5.5l-.24-.19c.02-.27.19-.2.19-.2l.19.11.15-.2s-.09-.09-.21-.2c-.12-.1-.27-.02-.27-.02l-.3.42c-.1.16.01.22.01.22,0,0,.61.53.76.66.16.14.37.04.37.04,0,0,.82-1.14.87-1.21.05-.08.04-.38.04-.38l-.96-.81Zm2.72,2.35c0-.33-.25-.6-.58-.6-.33,0-.59.26-.6.58,0,.33.25.6.58.6.33,0,.59-.25.6-.58Zm2.44,1.18s.06-.34.05-.57c-.01-.23-.16-.24-.16-.24h-.33s0,.23,0,.23l.23.02c.21.2-.02.3-.02.3l-.46-.02c-.26-.11,0-.66,0-.66v-.14c-.32-.5.14-.74.14-.74h.33c.15.21-.04.28-.04.28l-.23.04v.26s.13.02.3.02c.16,0,.25-.16.25-.16v-.53c0-.19-.14-.17-.14-.17,0,0-.85-.01-1.07-.02-.22,0-.35.21-.35.21,0,0-.02,1.45-.02,1.55,0,.1.2.33.2.33h1.33Zm.83-2.35s-.06.36-.05.6c.01.25.17.25.17.25h.34s0-.24,0-.24l-.24-.02c-.23-.2.02-.32.02-.32l.49.02c.27.12,0,.69,0,.69v.14c.34.52-.14.77-.14.77h-.35c-.16-.22.05-.29.05-.29l.25-.04v-.27s-.14-.02-.31-.02c-.17,0-.26.17-.26.17v.56c0,.2.15.17.15.17,0,0,.89,0,1.12.01.23,0,.36-.23.36-.23,0,0,.02-1.52.02-1.62,0-.1-.21-.35-.21-.35h-1.39Zm3.53.57c-.19-.26-.56-.32-.83-.12-.26.19-.32.56-.12.83.2.26.57.32.83.12.26-.19.32-.56.12-.83Zm2.97-.41s-.16-.31-.31-.49c-.15-.18-.27-.09-.27-.09l-.26.21.13.18.2-.13c.29.02.17.25.17.25l-.38.27c-.27.07-.39-.53-.39-.53l-.08-.11c-.56-.2-.34-.67-.34-.67l.25-.21c.25.09.14.26.14.26l-.16.17.15.21s.12-.07.25-.17c.13-.1.1-.28.1-.28l-.32-.43c-.13-.15-.22-.04-.22-.04,0,0-.68.51-.86.64-.18.13-.15.38-.15.38,0,0,.87,1.17.92,1.24.06.08.36.14.36.14l1.06-.8Zm-.73-2.13s.16.31.31.48c.15.18.27.09.27.09l.25-.21-.13-.18-.19.13c-.29-.02-.17-.25-.17-.25l.38-.27c.27-.07.39.53.39.53l.08.11c.56.2.34.66.34.66l-.25.21c-.25-.08-.14-.25-.14-.25l.16-.17-.16-.21s-.12.07-.25.17c-.13.1-.1.28-.1.28l.32.43c.13.15.22.04.22.04,0,0,.68-.51.85-.64.18-.13.14-.38.14-.38,0,0-.87-1.16-.93-1.24-.06-.08-.36-.14-.36-.14l-1.05.81Zm3.3-1.52c-.3-.13-.65,0-.78.3-.13.3,0,.65.3.78.3.13.65,0,.78-.3.13-.3,0-.65-.3-.78Zm2.72-1.71s-.32-.21-.57-.3-.31.06-.31.06l-.13.34.22.1.12-.23c.29-.14.3.15.3.15l-.22.47c-.23.22-.67-.29-.67-.29l-.14-.06c-.65.11-.7-.46-.7-.46l.13-.34c.29-.06.27.17.27.17l-.06.26.27.12s.07-.13.15-.3-.06-.32-.06-.32l-.54-.24c-.2-.07-.23.08-.23.08,0,0-.38.86-.48,1.09-.1.22.07.44.07.44,0,0,1.48.65,1.57.69.1.04.43-.06.43-.06l.58-1.36Zm-1.83-1.37s.32.21.57.3c.24.09.31-.06.31-.06l.13-.34-.22-.1-.12.23c-.29.14-.3-.15-.3-.15l.22-.47c.23-.22.67.29.67.29l.14.06c.65-.12.7.45.7.45l-.13.34c-.29.06-.28-.17-.28-.17l.06-.26-.27-.11s-.07.13-.15.3c-.07.17.06.32.06.32l.54.23c.2.07.23-.08.23-.08,0,0,.37-.87.47-1.09.1-.22-.07-.45-.07-.45,0,0-1.48-.64-1.58-.68-.1-.04-.42.07-.42.07l-.57,1.36Zm2.59-8.58c.33,0,.59-.26.59-.59s-.27-.59-.59-.59-.59.26-.59.59.27.59.59.59Zm-1.05,2.62s.38.06.64.05c.26-.02.26-.18.26-.18v-.36h-.26l-.02.26c-.21.24-.33-.01-.33-.01v-.52c.14-.29.75,0,.75,0h.15c.55-.37.82.14.82.14v.37c-.23.17-.3-.05-.3-.05l-.04-.26h-.29s-.01.15-.01.33.18.27.18.27h.59c.21-.01.18-.17.18-.17v-1.19c0-.24-.24-.38-.24-.38h-1.72c-.11,0-.37.23-.37.23v1.47Zm2.31.55s-.38-.06-.64-.04c-.26.02-.26.18-.26.18l.02.37h.24s.01-.26.01-.26c.21-.24.34.01.34.01v.52c-.13.29-.74,0-.74,0h-.15c-.55.37-.82-.13-.82-.13l-.02-.37c.24-.17.32.04.32.04l.05.26h.29s.02-.15.01-.34c0-.18-.18-.27-.18-.27h-.59c-.21.02-.18.17-.18.17,0,0,0,.94,0,1.19,0,.24.25.38.25.38,0,0,1.61,0,1.72,0,.11,0,.37-.23.37-.23l-.02-1.48Zm-2.01-10.5c.32-.08.51-.39.44-.71-.08-.32-.39-.51-.71-.44-.32.08-.51.39-.44.71.08.32.39.51.71.44Zm-.87,2.84s.36-.03.6-.1.2-.23.2-.23l-.1-.33-.22.05.04.24c-.14.27-.31.06-.31.06l-.1-.48c.05-.29.68-.16.68-.16l.14-.03c.43-.46.79-.05.79-.05l.1.33c-.19.21-.31.03-.31.03l-.1-.23-.27.06s.02.14.06.31c.04.17.23.21.23.21l.55-.13c.19-.06.13-.2.13-.2,0,0-.21-.87-.26-1.1-.05-.23-.31-.3-.31-.3,0,0-1.49.36-1.59.38-.1.02-.29.29-.29.29l.34,1.36Zm2.19.2s-.36.03-.6.1c-.24.07-.2.23-.2.23l.1.33.22-.06-.04-.24c.14-.27.31-.06.31-.06l.1.48c-.05.29-.67.16-.67.16l-.14.04c-.42.46-.79.06-.79.06l-.1-.33c.19-.21.31-.03.31-.03l.1.23.27-.07s-.02-.14-.06-.31c-.04-.17-.23-.21-.23-.21l-.55.13c-.19.06-.13.2-.13.2,0,0,.21.87.27,1.09.06.23.31.3.31.3,0,0,1.49-.36,1.59-.39.1-.02.29-.29.29-.29l-.35-1.36Zm-1.42-10.04c.33,0,.59-.26.59-.59s-.26-.59-.59-.59-.59.26-.59.59.26.59.59.59Zm-1.08,2.62s.38.06.64.05c.26-.02.26-.18.26-.18l-.02-.36h-.24v.26c-.23.24-.35-.01-.35-.01l.02-.52c.12-.29.73,0,.73,0h.15c.55-.37.82.14.82.14l.02.36c-.24.17-.32-.04-.32-.04l-.05-.26h-.29s-.02.15-.02.33.18.27.18.27h.59c.21-.01.18-.17.18-.17v-1.19c0-.24-.24-.38-.24-.38h-1.72c-.11,0-.36.23-.36.23v1.47Zm2.31.55s-.38-.06-.64-.04c-.26.02-.26.18-.26.18l.02.37h.24s.01-.26.01-.26c.21-.24.33.01.33.01v.52c-.13.29-.74,0-.74,0h-.15c-.55.37-.82-.13-.82-.13l-.02-.37c.24-.17.32.04.32.04l.05.26h.29s.01-.15.01-.34c0-.18-.18-.27-.18-.27h-.59c-.21.02-.18.17-.18.17,0,0,0,.94,0,1.19,0,.24.25.38.25.38,0,0,1.61,0,1.72,0,.11,0,.36-.23.36-.23l-.02-1.48Zm-24.76-3.44l.17-.35-.46.23.29.12Zm-.59,1.03h.17s.21-.52.21-.52l-.37.05v.47Zm-.52.05l-.18-.32-.2.29.38.03Zm-.35,6.74l-.2.21.23.04-.03-.26Zm-.12,12.21l.03.2.18-.03v-.12s-.21-.05-.21-.05Zm.85,1.55l.32.11-.29.12-.03-.23Zm-.71.3l-.14.32.24-.06-.11-.26Zm3.04,3.95v.37s-.36-.2-.36-.2l.36-.17Zm5.52,4l-.17.38.32-.02-.15-.37Zm1.84,1.08v-.14h.2v.14h-.2Zm4.73-.36l.32.15-.3.14v-.29Zm2.2-.58l-.27.03-.03-.35.3.32Zm5.2-4.35l.09.32.35-.12-.39-.18m2.86-3.62h.21v-.2h-.23v.2Zm-.79-.61l.23.02v.2l-.23-.21Zm.79-1.64l.2.02v.2l-.18-.03-.02-.18Zm-.15-12.23l.32.24h-.35s.06-.2.06-.2m-.12-6.74l-.23-.3-.18.29h.41Zm.35,20.66c.33,0,.59-.27.59-.59s-.27-.59-.59-.59-.59.27-.59.59.27.59.59.59Z"/>
        <path class="cls-10" d="m69.99,42.14s1.3,1.51,5.05.05c0,0,2.26-.62,4.48.35,0,0,2.64-1.42,6.08.04,0,0,1.74.73,3.41-.53l2.07,3.97s-1.74,1.62-2.03,3.29c0,0-.97,4.01.53,7.1,0,0,.85,2.15,1.46,2.88,0,0,.61,3.57-2.39,5.84,0,0-1.22,1.26-2.43,1.7,0,0-2.39.65-3.2.73,0,0-2.27.53-3.2,1.54,0,0-2.15-1.38-3.85-1.5,0,0-2.51-.2-4.14-1.38,0,0-1.58-1.14-2.07-2.03,0,0-1.66-2.39-1.58-4.22,0,0,.08-.65.36-.93,0,0,2.03-3.53,1.91-6.73,0,0,.09-4.49-2.47-6.16l2.02-4.02Z"/>
        <path class="cls-5" d="m60.71,51.39l-.32-.64-.45.53-.51.09.14,1.11.05.59s-.03.66-.27,1.38c0,0-.3.91-.3,1.16,0,0-.09.58,0,1,0,0,.17.38.3.5,0,0-.15.79.2.96l.02.11s-.4.12-.37.5c.03.38.05.3.14.4,0,0-.32.52-.35.82,0,0-.2.38.18.9,0,0-.31.67.05,1,0,0-.41.21-.33,1.03,0,0-.33.26-.43.43,0,0-.17.55-.14.65,0,0,.09.96.15,1.19,0,0,.12.94.11,1.19,0,0,.02.37-.05.65,0,0-.11,1.06-.56,1.58l-.03.15h.24l.27-.18.41.61.46-.58.34.26h.23s-.4-.88-.35-1.52c0,0-.03-.96.3-1.82,0,0,.3-.79.35-1.42,0,0,.2-.64-.36-1.06,0,0,.66-.47.03-1.03,0,0,.58-.63.1-1.06,0,0,.73-.33.54-.9,0,0-.12-.61-.43-.76,0,0,.61-.67,0-1,0,0,.67-.52.17-1.11,0,0,.67-.04.67-1.46,0,0-.25-1.61-.23-1.89.06-1.04.16-1.47.16-1.47l.27-.4.22-.26-.59-.23Z"/>
        <polygon class="cls-8" points="60.33 51.02 60.02 51.59 60.2 52.17 60.59 51.67 60.33 51.02"/>
        <path class="cls-8" d="m61,51.7s-.37.32-.44.88c0,0-.06,1.14.03,2.05,0,0,.17.88.03,1.4,0,0,.11.3-.47.84,0,0-.27.11-.68.03,0,0-.41-.24-.26-1.17,0,0,.38-1.46.47-1.75,0,0,.14-.35.14-1.19s0-.05,0-.05c0,0,0-1.08-.11-1.29,0,0,.26.18.3.68,0,0,.08,1.32-.03,1.64,0,0-.3,1.06-.33,1.23,0,0-.29.65-.17,1.19,0,0-.01.41.33.41,0,0,.41.17.53-.44,0,0,.06-.37.01-.7,0,0-.12-1.08-.11-1.51,0,0,.02-1.34.15-1.69,0,0,.27-.5.59-.62.32-.12,0,.05,0,.05Z"/>
        <polygon class="cls-8" points="60.02 54.48 59.73 55.2 60.12 55.19 60.02 54.48"/>
        <path class="cls-8" d="m59.92,56.45c.15,0,.28-.13.28-.28s-.13-.28-.28-.28-.28.12-.28.28.13.28.28.28Z"/>
        <path class="cls-8" d="m59.73,58.99c.18,0,.33-.15.33-.33s-.15-.33-.33-.33-.33.15-.33.33.15.33.33.33Z"/>
        <polygon class="cls-8" points="58.94 67.71 58.61 68.31 58.88 68.82 59.16 68.28 58.94 67.71"/>
        <path class="cls-8" d="m59.43,68.25s-.25-1.31-.05-2.02c0,0,.48-1.64.55-1.86s.08-.81.02-.93c-.06-.12-.2-.35-.55-.39,0,0-.61-.03-.75.41,0,0-.12.47-.09.97,0,0,.12.75.15.97.03.23,0-.05,0-.05,0,0,.11.53.09.82,0,0-.02.76-.09,1.07,0,0-.3.96-.39,1.11,0,0,.55-.73.59-1.03,0,0,.14-1.43.11-1.6-.03-.17-.18-1.2-.18-1.25s-.03-.82.08-.94c0,0,.17-.2.35-.2,0,0,.39.03.44.43,0,0,.03.59-.07.93,0,0-.34.93-.38,1.17,0,0-.17.97-.12,1.4,0,0,.04.71.3.99Z"/>
        <path class="cls-8" d="m59.57,61.69c.17,0,.31-.14.31-.31s-.14-.31-.31-.31-.31.14-.31.31.14.31.31.31Z"/>
        <path class="cls-8" d="m59.28,64.18c.15,0,.27-.12.27-.27s-.12-.27-.27-.27-.27.12-.27.27.12.27.27.27Z"/>
        <polygon class="cls-8" points="59.08 64.82 59.38 64.84 59.22 65.45 59.08 64.82"/>
        <path class="cls-2" d="m60.07,64.86c.53-1.89-.26-2.03-.26-2.03.67-.43,0-.92,0-.92.58-.4.2-1.02.2-1.02,0,0,.11-.1.21-.2"/>
        <path class="cls-2" d="m59.29,59.09c-.72,1.04-.13,1.71-.13,1.71-.11.17-.15.37-.15.37,0,0-.08.38.2.62,0,0-.54.36-.29,1.03,0,0-.14-.02-.23.16,0,0-.52-.2-.25,2.27"/>
        <path class="cls-8" d="m79.79,68.34s2.28-1.37,4.78-1.61v-11.37h-4.8l.03,12.99Z"/>
        <path class="cls-7" d="m81.88,60.78s.26-.21.69-.08c0,0,.08.02.24-.21,0,0,.07-.02.09.52,0,0,0,.09.11.27,0,0,.2.42-.01,1.02,0,0-.25.63-.07,1.08,0,0,.08.26.18.39,0,0,.24.29.25.86,0,0-.01.02.06.12,0,0,.2.33.34.42,0,0,.3.18.3-.2,0,0,.01-.12-.14-.51,0,0-.21-.56-.27-.84,0,0-.11-.36-.07-.57,0,0,.14-.21.22.05,0,0,.01-.02,0,.15,0,0-.02.13-.02.26s.01.24.15.62c0,0,.16.41.2.55,0,0,.08.23.04.4,0,0-.04.21-.19.23,0,0-.16.04-.29-.09,0,0-.22-.23-.32-.41,0,0-.11-.1-.15.07,0,0-.12.2,0,.53,0,0,.05.11.01.29-.04.18,0,0,0,0,0,0-.09.45,0,.71,0,0,.07.22.06.24,0,0-.09.06-.11-.04,0,0-.05-.05-.1.01,0,0-.14.18-.22-.01,0,0-.07-.06-.12.03,0,0-.04.07-.08.07,0,0-.11,0-.05-.17,0,0,.05-.12.14-.18,0,0,.08-.01.14-.15,0,0,.03-.38,0-.43,0,0-.04-.37-.03-.42,0,0-.03-.06-.07-.09,0,0-.34-.29-.46-.54,0,0-.1-.1-.18.02,0,0-.01.03-.02.08,0,.06,0-.01,0-.01,0,0-.01.37-.11.55,0,0-.09.16-.24.04,0,0-.62-.5-.8-.56,0,0-.18-.03-.26-.13,0,0-.04-.05,0-.05,0,0,.29-.03.11-.23,0,0-.05-.09.08-.07,0,0,.18.05.09-.13,0,0-.01-.15.11-.02,0,0,.04.04.08.27,0,0,0,.13.13.24,0,0,0,.02.26.13,0,0,.22.07.08-.27,0,0-.05-.33.1-.49,0,0,.04-.06.2-.18,0,0,.02-.02.09,0,0,0,.34.11.2-.16-.14-.27-.34-.52-.54-1.01,0,0-.07-.13-.24-.14,0,0-.43-.01-.63-.07,0,0-.26-.11-.36-.02,0,0-.02.06-.15.06,0,0-.11-.03,0-.11,0,0,.12-.12-.06-.17,0,0-.08-.1.05-.11,0,0,.22-.03.01-.18,0,0-.07-.1.09-.09,0,0,.01,0,.06.05,0,0,.09.16.38.26,0,0,.11.03.35,0,0,0,.23-.01.37.04,0,0,.09.04.13-.05,0,0,.02-.08-.08-.1,0,0-.42-.14-.59-.27,0,0-.12-.05-.38-.59,0,0-.01-.05-.08-.05,0,0-.11-.01-.14-.03,0,0-.09-.08.03-.08,0,0,.18.04.22-.04,0,0,.02-.14-.13-.13,0,0-.11,0-.04-.09,0,0,.06-.05.11-.01,0,0,.04.05.1.06,0,0,.13.02.08-.13,0,0-.03-.03-.06-.04,0,0-.07-.12.06-.09,0,0,.14.11.15.2,0,0-.01.43.14.66,0,0,.26.3.45.34,0,0,.11.04.22-.05,0,0,.18-.14.21-.22,0,0,.04-.08-.07-.13,0,0-.13-.08-.16-.13,0,0-.09-.1-.09-.27,0,0,0-.13.03-.15,0,0,.07-.08.17-.09Z"/>
        <path class="cls-7" d="m75.75,54.92h-1.46v-11.86s2.83-1.19,4.96.18v8.21h-3.25v3.47h-.25Z"/>
        <path class="cls-14" d="m78.52,43.35s.3.6.3.91h-1v-.47h-.71v.47h-.82v-.47h-.73v.47h-.97s.15-.8.3-.91h3.63Z"/>
        <path class="cls-5" d="m75.47,44.64s.22.36.22.36c.19.34-.01.56-.01.56.09-.14.32-.1.32-.1.49.18.26.61.26.61-.06.13-.18.1-.18.1-.09-.02-.02-.16-.02-.16.04-.21-.19-.16-.19-.16-.22.07-.17.45-.17.45,0,0,.16.06.13.17-.03.11-.14.09-.14.09,0,0-.1.04-.03.13,0,0,.07.14.15.01,0,0,.06-.24.14,0,0,0,.06.11-.04.24,0,0-.06.05-.3.06,0,0-.16.12-.16.18h-.03c0-.06-.15-.19-.15-.19-.24-.02-.3-.07-.3-.07-.09-.13-.03-.24-.03-.24.07-.23.13,0,.13,0,.08.13.15,0,.15,0,.07-.09-.03-.13-.03-.13,0,0-.11.02-.13-.09-.03-.11.13-.17.13-.17,0,0,.05-.38-.17-.45,0,0-.23-.06-.19.15,0,0,.06.15-.02.16,0,0-.12.03-.18-.1,0,0-.22-.43.27-.61,0,0,.23-.04.32.1,0,0-.2-.22,0-.55,0,0,.18-.33.22-.35"/>
        <path class="cls-5" d="m78.07,44.7s.22.36.22.36c.19.34-.01.55-.01.55.1-.14.32-.1.32-.1.49.18.27.61.27.61-.06.13-.18.1-.18.1-.09-.02-.02-.16-.02-.16.04-.21-.18-.16-.18-.16-.22.07-.17.45-.17.45,0,0,.16.06.13.17-.03.11-.13.09-.13.09,0,0-.1.04-.04.13,0,0,.07.14.15.01,0,0,.06-.24.14,0,0,0,.06.11-.04.24,0,0-.06.05-.3.06,0,0-.16.12-.16.18h-.03c0-.06-.15-.19-.15-.19-.24-.02-.3-.06-.3-.06-.09-.13-.03-.24-.03-.24.07-.23.13,0,.13,0,.08.13.15,0,.15,0,.06-.09-.03-.13-.03-.13,0,0-.11.02-.13-.09-.03-.11.13-.17.13-.17,0,0,.05-.38-.17-.45,0,0-.23-.06-.19.15,0,0,.06.14-.02.16,0,0-.12.03-.18-.1,0,0-.22-.43.27-.61,0,0,.23-.04.32.1,0,0-.19-.22,0-.56,0,0,.18-.33.22-.35"/>
        <path class="cls-5" d="m76.86,46.56s.22.36.22.36c.19.34-.01.56-.01.56.09-.14.32-.1.32-.1.49.18.26.61.26.61-.06.13-.18.1-.18.1-.09-.02-.02-.16-.02-.16.04-.21-.18-.16-.18-.16-.22.07-.17.45-.17.45,0,0,.16.06.13.17-.03.11-.14.09-.14.09,0,0-.1.04-.03.13,0,0,.07.14.15.01,0,0,.06-.24.14,0,0,0,.06.11-.04.24,0,0-.06.05-.3.06,0,0-.16.12-.16.18h-.03c0-.06-.15-.19-.15-.19-.24-.02-.3-.07-.3-.07-.09-.13-.03-.24-.03-.24.07-.23.13,0,.13,0,.08.13.16,0,.16,0,.06-.09-.03-.13-.03-.13,0,0-.11.02-.13-.09-.03-.11.13-.17.13-.17,0,0,.05-.38-.17-.45,0,0-.23-.06-.19.15,0,0,.06.14-.02.16,0,0-.12.03-.18-.1,0,0-.22-.43.27-.61,0,0,.23-.04.32.1,0,0-.2-.22,0-.55,0,0,.18-.33.22-.35"/>
        <path class="cls-5" d="m75.52,48.47s.22.36.22.36c.19.34-.01.56-.01.56.1-.14.32-.1.32-.1.49.18.26.61.26.61-.06.13-.18.1-.18.1-.09-.02-.02-.16-.02-.16.04-.21-.18-.16-.18-.16-.22.07-.17.45-.17.45,0,0,.16.06.13.17-.03.11-.14.09-.14.09,0,0-.1.04-.03.13,0,0,.07.14.15.01,0,0,.06-.24.13,0,0,0,.06.11-.04.24,0,0-.06.05-.3.06,0,0-.15.12-.16.18h-.03c0-.06-.15-.19-.15-.19-.24-.02-.3-.06-.3-.06-.09-.14-.03-.24-.03-.24.07-.23.13,0,.13,0,.08.13.15,0,.15,0,.06-.09-.03-.13-.03-.13,0,0-.11.02-.13-.09-.03-.11.13-.17.13-.17,0,0,.05-.38-.17-.45,0,0-.23-.06-.19.15,0,0,.06.14-.02.16,0,0-.12.03-.18-.1,0,0-.22-.43.27-.61,0,0,.23-.04.32.1,0,0-.2-.22,0-.55,0,0,.18-.33.22-.36"/>
        <path class="cls-5" d="m78.24,48.43s.22.36.22.36c.19.34-.01.55-.01.55.1-.14.32-.1.32-.1.49.18.26.61.26.61-.06.12-.18.1-.18.1-.09-.02-.02-.16-.02-.16.04-.21-.18-.16-.18-.16-.22.07-.17.45-.17.45,0,0,.16.06.13.17-.03.11-.14.09-.14.09,0,0-.1.04-.03.13,0,0,.07.14.15.01,0,0,.06-.24.13,0,0,0,.06.11-.04.24,0,0-.06.05-.3.06,0,0-.15.12-.15.18h-.03c0-.06-.15-.19-.15-.19-.24-.02-.3-.07-.3-.07-.09-.13-.03-.24-.03-.24.07-.23.13,0,.13,0,.08.13.15,0,.15,0,.06-.09-.03-.13-.03-.13,0,0-.11.02-.13-.09-.03-.11.13-.17.13-.17,0,0,.05-.38-.17-.45,0,0-.23-.06-.19.16,0,0,.06.14-.02.16,0,0-.12.03-.18-.1,0,0-.22-.43.27-.61,0,0,.23-.04.32.1,0,0-.2-.22,0-.56,0,0,.18-.33.22-.35"/>
        <path class="cls-5" d="m75.58,51.97s.22.36.22.36c.19.34-.01.56-.01.56.1-.14.32-.1.32-.1.49.18.26.61.26.61-.06.13-.18.1-.18.1-.09-.02-.02-.16-.02-.16.04-.21-.18-.16-.18-.16-.22.07-.17.45-.17.45,0,0,.16.06.13.17-.03.11-.14.09-.14.09,0,0-.1.04-.03.13,0,0,.07.14.15.01,0,0,.06-.24.13,0,0,0,.06.11-.04.24,0,0-.06.05-.3.06,0,0-.16.12-.16.18h-.03c0-.06-.15-.19-.15-.19-.24-.02-.3-.06-.3-.06-.09-.13-.03-.24-.03-.24.07-.23.13,0,.13,0,.08.13.15,0,.15,0,.06-.09-.03-.13-.03-.13,0,0-.11.02-.13-.09-.03-.11.13-.17.13-.17,0,0,.05-.38-.17-.45,0,0-.23-.06-.19.15,0,0,.06.14-.02.16,0,0-.12.03-.18-.1,0,0-.22-.43.27-.61,0,0,.23-.04.32.1,0,0-.2-.22,0-.56,0,0,.18-.33.22-.35"/>
        <path class="cls-1" d="m70.7,55.57h3.48v10.96s-2.07-.26-3.75-2.41c0,0-1.68-1.78-1.62-4.06,0,0,.59-1.52.89-2.05,0,0,.83-2.01.83-2.45h.17Z"/>
        <path class="cls-7" d="m74.35,55.39l.03,11.3s3.99.61,4.9,1.58l.03-12.9"/>
        <g>
          <path class="cls-5" d="m76.06,60.49s.43-.06.81.02c0,0,.08-.31.31-.52,0,0-.15-.04-.25.03,0,0-.11.1-.14.14,0,0-.02,0-.06-.1,0,0-.03-.09-.09.01l-.04.07s-.02.04-.04-.03l-.11-.23s-.05-.13-.11.02c0,0-.07.22-.09.23,0,0-.01,0-.04-.03,0,0-.05-.07-.08-.07,0,0-.05.01-.1.09,0,0-.01,0-.04-.02,0,0-.11-.18-.34-.16,0,0,.42.49.4.54Z"/>
          <path class="cls-5" d="m76.66,60.6s.11.05.2.06c0,0,.08.04.13.11,0,0,.12.2.37.34,0,0,.09.1-.05.23,0,0-.09.08-.1.19,0,0-.02.13-.17.13,0,0-.07.03,0,.08,0,0,.23.18.33.23,0,0,.1.03.17-.04l.32-.33s.03-.1,0-.17c0,0-.21-.44.16-.61,0,0,.07-.03.08.06,0,0-.03.09.11.09,0,0,.05,0,.04.09,0,0,0,.05.11.08,0,0,.07,0-.04.15,0,0-.03.11-.02.23,0,0-.04.07-.04.13,0,0,0,.03-.02.04,0,0-.07.03-.04.09,0,0,.04.06-.02.09,0,0-.08.05-.09.14,0,0,.02.05-.1.06,0,0,0,.14-.06.18,0,0-.07.03-.13-.02,0,0-.12.05.03.09,0,0,.24.12.5-.26,0,0,.1-.18.36-.15,0,0,.08.04,0,.14,0,0-.11.12.08.13,0,0,.11.04.02.13,0,0-.05.04.04.11,0,0,.1.11-.13.18,0,0,0,.04-.27.02,0,0-.03.2-.18.1,0,0-.04-.02-.08.04,0,0-.03.07-.12.05,0,0-.05-.02-.07.05,0,0-.06.04-.11,0,0,0-.03-.02-.05.02,0,0-.07.06-.2-.02l-.08-.05s-.06,0-.07.03c0,0-.03.17-.22.34,0,0-.21.21-.28.37,0,0-.11.21-.12.28,0,0-.02.07.04.11,0,0,.03.04.11-.04,0,0,.15-.15.31-.09,0,0,.16.04.16.26,0,0-.01.25-.06.51,0,0-.02.12,0,.19,0,0,0,.06.06.02,0,0,.22-.16.26-.21,0,0-.06-.4.3-.54,0,0,.1,0,.05.1,0,0,.17-.04.06.17,0,0,.14-.02.09.17,0,0,.15,0,.01.14,0,0-.03.04-.04.06,0,0-.05.09-.14.12,0,0-.11.09-.11.21,0,0-.06.08-.11.1,0,0-.07.08-.09.13,0,0-.04.06-.16.06,0,0-.05.04-.08.1,0,0-.01.05-.14.05,0,0,0,.04-.08.05,0,0,0,.07-.02.08,0,0-.11.05-.12-.08,0,0-.05-.53-.25-.71,0,0-.08-.06-.12,0,0,0-.21.36-.56.61,0,0-.02.02-.02.05,0,0,0,.57-.05.73,0,0,0,.02.06.07,0,0,.44.19.43.43,0,0-.05.05-.15.02,0,0-.08.13-.19-.02,0,0-.08-.07-.12,0,0,0-.07.12-.14-.02,0,0-.08-.14-.13,0,0,0-.07.13-.15-.04,0,0-.06-.05,0-.23,0,0,.12-.24.07-.56,0,0-.09-.41.06-.61,0,0,0,0,.02-.05l-.03-.22s-.02-.11-.07,0c0,0-.08.32-.35.33,0,0-.43.02-.37-.6,0,0,.05-.41.16-.61,0,0,0-.08-.03-.11l-.34-.27s-.18-.14.04-.43c0,0,.1-.09.09.09,0,0,0,.18.34.3,0,0,.05.07.07-.04,0,0,.01-.09.04-.12,0,0,.2-.52-.05-.63,0,0-.07-.03-.16.03,0,0-.46.03-.44-.35,0,0,.33,0,.5-.08,0,0,.4-.18.48.36,0,0,.03.41-.16,1.03,0,0-.15.33-.19.63,0,0-.06.3-.06.42,0,0,.05.32.22,0,0,0,.08-.18.06-.38,0,0-.01-.23.17-.54,0,0,.12-.11.22-.57,0,0,.08-.51-.17-.83,0,0-.1,0-.11-.03,0,0-.03,0,.03-.29,0,0-.18,0-.09-.18,0,0,.03-.08-.05-.07,0,0-.14-.02.02-.14,0,0,.11-.11-.02-.11,0,0-.1,0,0-.14,0,0,.06-.07,0-.13,0,0-.1-.1.1-.14,0,0,.16,0,.02-.13,0,0-.08-.12.11-.15,0,0,.08,0,.04-.06,0,0-.08-.14.2-.15,0,0,.1,0,.04-.08,0,0-.04-.16.16-.11,0,0,.1.06.18-.02,0,0,.05-.16.16-.03"/>
        </g>
        <path class="cls-8" d="m85.08,55.35h3.56s.97,3.04,1.89,4.44c0,0,.09,5.02-5.44,6.75v-11.19Z"/>
        <polygon class="cls-5" points="85.68 59.49 86.29 59.49 86.29 60.06 86.85 60.06 86.85 60.7 86.32 60.7 86.32 61.33 85.66 61.33 85.66 60.7 85.12 60.7 85.12 60.07 85.68 60.07 85.68 59.49"/>
        <polygon class="cls-5" points="86.83 55.6 87.44 55.6 87.44 56.16 88 56.16 88 56.8 87.47 56.8 87.47 57.44 86.82 57.44 86.82 56.8 86.27 56.8 86.27 56.18 86.83 56.18 86.83 55.6"/>
        <path class="cls-5" d="m88.89,60.09h.56v-.58h.61v.56h.45s0,.38-.08.65h-.34v.62h-.66v-.64h-.55v-.62Z"/>
        <polygon class="cls-5" points="87.02 63.06 87.63 63.06 87.63 63.62 88.19 63.62 88.19 64.26 87.66 64.26 87.66 64.9 87.01 64.9 87.01 64.26 86.46 64.26 86.46 63.64 87.02 63.64 87.02 63.06"/>
        <path class="cls-8" d="m79.76,51.49v-8.24s1.55-1.31,4.8-.21v11.92h-1.43v-3.47h-3.38Z"/>
        <polygon class="cls-5" points="80.72 43.73 83.59 43.73 83.59 44.57 82.62 44.57 82.62 47.97 83.55 47.97 83.55 46.99 84.38 46.99 84.38 49.78 83.55 49.78 83.55 48.87 82.62 48.87 82.62 51.27 81.77 51.27 81.77 48.87 80.84 48.87 80.84 49.78 80.01 49.78 80.01 46.99 80.84 46.99 80.84 47.96 81.79 47.96 81.79 44.57 80.72 44.57 80.72 43.73"/>
        <rect class="cls-5" x="83.32" y="52.34" width=".29" height=".7"/>
        <polygon class="cls-5" points="80.51 45.07 80.99 45.07 80.99 45.48 81.42 45.48 81.42 45.97 81.01 45.97 81.01 46.41 80.49 46.41 80.49 45.98 80.08 45.98 80.08 45.51 80.51 45.51 80.51 45.07"/>
        <polygon class="cls-5" points="83.41 45.06 83.89 45.06 83.89 45.47 84.32 45.47 84.32 45.96 83.91 45.96 83.91 46.4 83.39 46.4 83.39 45.97 82.98 45.97 82.98 45.5 83.41 45.5 83.41 45.06"/>
        <polygon class="cls-5" points="81.4 50.87 80.95 50.87 80.95 50.47 80.48 50.47 80.48 50.88 80.05 50.88 80.05 51.29 81.4 51.29 81.4 50.87"/>
        <polygon class="cls-5" points="83.42 50.43 83.9 50.43 83.9 50.85 84.31 50.85 84.31 51.32 83.9 51.32 83.9 51.75 83.42 51.75 83.42 51.34 83.28 51.34 83.28 51.26 83.01 51.26 83.01 50.85 83.42 50.85 83.42 50.43"/>
        <path class="cls-10" d="m75.84,51.27h7.48v6.93s-.24,1.4-1.49,1.46c0,0-2.1-.06-2.22.7,0,0-.46-.67-1.13-.73,0,0-1.2.03-1.54-.15,0,0-.9-.11-1.14-1.43l.03-6.78Z"/>
        <g>
          <path class="cls-5" d="m82.96,58.17s-.12.87-1.03,1.11c0,0-1.78-.06-2.11.26v-7.91h3.16l-.02,6.54Z"/>
          <path class="cls-13" d="m81.46,54.09c.49,0,.89-.4.89-.89s-.4-.89-.89-.89-.89.4-.89.89.4.89.89.89Z"/>
          <path class="cls-8" d="m80.89,52.8s.07.1.07.1c.05.1,0,.16,0,.16.03-.04.09-.03.09-.03.14.05.08.18.08.18-.02.04-.05.03-.05.03-.03,0,0-.05,0-.05.01-.06-.06-.05-.06-.05-.06.02-.05.13-.05.13,0,0,.05.02.04.05,0,.03-.04.03-.04.03,0,0-.03.01,0,.04,0,0,.02.04.05,0,0,0,.02-.07.04,0,0,0,.02.03-.01.07,0,0-.01.01-.09.02,0,0-.05.04-.05.05h0s-.04-.06-.04-.06c-.07,0-.09-.02-.09-.02-.03-.04,0-.07,0-.07.02-.07.04,0,.04,0,.02.04.04,0,.04,0,.02-.03,0-.04,0-.04,0,0-.03,0-.04-.03,0-.03.04-.05.04-.05,0,0,.01-.11-.05-.13,0,0-.07-.02-.06.04,0,0,.02.04,0,.05,0,0-.03,0-.05-.03,0,0-.06-.13.08-.18,0,0,.07-.01.09.03,0,0-.06-.06,0-.16,0,0,.05-.1.06-.1"/>
          <path class="cls-8" d="m81.44,52.8s.06.1.06.1c.05.1,0,.16,0,.16.03-.04.09-.03.09-.03.14.05.08.18.08.18-.02.04-.05.03-.05.03-.03,0,0-.05,0-.05.01-.06-.05-.05-.05-.05-.06.02-.05.13-.05.13,0,0,.05.02.04.05,0,.03-.04.03-.04.03,0,0-.03,0,0,.04,0,0,.02.04.04,0,0,0,.02-.07.04,0,0,0,.02.03-.01.07,0,0-.02.01-.09.02,0,0-.05.04-.05.05h0s-.05-.06-.05-.06c-.07,0-.09-.02-.09-.02-.03-.04,0-.07,0-.07.02-.07.04,0,.04,0,.02.04.04,0,.04,0,.02-.03,0-.04,0-.04,0,0-.03,0-.04-.03,0-.03.04-.05.04-.05,0,0,.01-.11-.05-.13,0,0-.07-.02-.05.04,0,0,.02.04,0,.05,0,0-.04,0-.05-.03,0,0-.06-.13.08-.18,0,0,.07-.01.09.03,0,0-.06-.06,0-.16,0,0,.05-.1.07-.1"/>
          <path class="cls-8" d="m82.01,52.83s.07.1.07.1c.05.1,0,.16,0,.16.03-.04.09-.03.09-.03.14.05.08.18.08.18-.02.04-.05.03-.05.03-.03,0,0-.05,0-.05.01-.06-.06-.05-.06-.05-.06.02-.05.13-.05.13,0,0,.05.02.04.05,0,.03-.04.03-.04.03,0,0-.03.01,0,.04,0,0,.02.04.05,0,0,0,.02-.07.04,0,0,0,.02.03-.01.07,0,0-.02.01-.09.02,0,0-.05.04-.05.05h0s-.04-.06-.04-.06c-.07,0-.09-.02-.09-.02-.03-.04-.01-.07-.01-.07.02-.07.04,0,.04,0,.03.04.05,0,.05,0,.02-.03,0-.04,0-.04,0,0-.03,0-.04-.03,0-.03.04-.05.04-.05,0,0,.01-.11-.05-.13,0,0-.07-.02-.05.05,0,0,.02.04,0,.05,0,0-.04,0-.05-.03,0,0-.06-.13.08-.18,0,0,.07-.01.09.03,0,0-.06-.06,0-.16,0,0,.05-.1.06-.1"/>
          <path class="cls-13" d="m80.46,55.72c.3,0,.54-.24.54-.54s-.24-.54-.54-.54-.54.24-.54.54.24.54.54.54Z"/>
          <path class="cls-13" d="m82.13,55.74c.3,0,.54-.24.54-.54s-.24-.54-.54-.54-.54.24-.54.54.24.54.54.54Z"/>
          <path class="cls-13" d="m80.51,57.35c.3,0,.54-.24.54-.54s-.24-.54-.54-.54-.54.24-.54.54.24.54.54.54Z"/>
          <path class="cls-13" d="m82.18,57.36c.3,0,.54-.24.54-.54s-.24-.54-.54-.54-.54.24-.54.54.24.54.54.54Z"/>
          <path class="cls-13" d="m81.33,58.78c.3,0,.54-.24.54-.54s-.24-.54-.54-.54-.54.24-.54.54.24.54.54.54Z"/>
        </g>
        <g>
          <path class="cls-5" d="m76.14,58.18s.12.87,1.03,1.11c0,0,1.78-.06,2.11.26v-7.91h-3.16l.02,6.54Z"/>
          <polygon class="cls-13" points="76.13 51.63 77.48 51.63 79.29 54.73 79.29 59.54 76.11 54.73 76.13 51.63"/>
          <path class="cls-8" d="m78.19,55.77s-.05-.11,0-.16c0,0,.07-.09.16,0,0,0,.07.07.06.11,0,0,0,.09.03.13,0,0,.02.05.1-.14,0,0,.08-.15.17-.18,0,0,.3-.09.56.08,0,0,.1.1-.15.1,0,0-.18-.04-.24,0,0,0-.17.13-.22.32,0,0-.04.08.08.15,0,0,.1.06.16.08,0,0,.13.13-.09.11,0,0-.1-.03-.11-.02,0,0-.04.01-.04.07,0,0-.01.04-.01.06,0,0-.06.11-.12,0,0,0,.04-.13-.01-.3,0,0-.06-.09-.15-.05,0,0-.23.05-.39.42,0,0-.11.16-.11-.03,0,0,.06-.44.18-.52,0,0,.06-.04.32-.03,0,0,.05-.01-.04-.07,0,0-.09-.05-.12-.11Z"/>
          <path class="cls-8" d="m76.68,53.34s-.04-.11,0-.15c0,0,.07-.09.16,0,0,0,.07.07.06.12,0,0,0,.09.03.13,0,0,.02.05.1-.14,0,0,.08-.15.17-.18,0,0,.3-.09.56.08,0,0,.1.1-.15.1,0,0-.18-.04-.24,0,0,0-.17.13-.23.31,0,0-.04.08.08.15,0,0,.1.06.16.08,0,0,.13.13-.09.11,0,0-.1-.03-.11-.02,0,0-.04.02-.04.07,0,0-.01.04-.01.06,0,0-.06.11-.11,0,0,0,.04-.13-.01-.3,0,0-.05-.09-.15-.05,0,0-.23.05-.39.42,0,0-.11.16-.11-.03,0,0,.05-.44.18-.52,0,0,.06-.04.32-.03,0,0,.05-.01-.04-.07,0,0-.09-.05-.12-.11Z"/>
          <path class="cls-8" d="m77.48,54.54s-.05-.11,0-.15c0,0,.07-.09.16,0,0,0,.07.07.06.11,0,0,0,.09.03.13,0,0,.03.05.1-.14,0,0,.08-.15.17-.18,0,0,.3-.09.56.08,0,0,.1.1-.15.1,0,0-.18-.04-.24,0,0,0-.17.13-.22.32,0,0-.04.08.08.14,0,0,.1.06.16.08,0,0,.13.13-.09.11,0,0-.1-.03-.11-.02,0,0-.04.01-.04.07,0,0-.02.04-.02.06,0,0-.06.11-.12,0,0,0,.04-.13-.01-.3,0,0-.05-.09-.15-.04,0,0-.23.05-.39.42,0,0-.11.16-.11-.03,0,0,.05-.44.18-.52,0,0,.06-.04.32-.03,0,0,.05-.02-.04-.07,0,0-.09-.05-.12-.11Z"/>
        </g>
        <path class="cls-8" d="m88.49,54.95h-3.44v-11.86s2.1.73,3.71-.15l1.58,2.86s-3.25,2.92-1.85,9.16Z"/>
        <path class="cls-13" d="m89.39,44.07l.61,1.06v1.06s-.6.81-.6.87v-3Z"/>
        <path class="cls-13" d="m86.86,43.35s.5.01.64-.03v11.63h-.64v-11.6Z"/>
        <path class="cls-13" d="m85.63,43.21s.55.12.62.12v11.62h-.62v-11.74Z"/>
        <path class="cls-13" d="m88.49,54.95s-.57-2.75-.25-4.28c0,0,.34-1.86.5-2.24v-5.5s-.38.19-.64.23v11.79h.39Z"/>
        <path class="cls-6" d="m96.29,57.73c0-2.56,2.07-4.63,4.63-4.63s4.63,2.07,4.63,4.63-2.07,4.63-4.63,4.63-4.63-2.07-4.63-4.63Z"/>
        <polygon class="cls-5" points="103.28 53.78 104.26 52.07 105.07 52.42 105.38 51.88 104.53 51.49 105.07 50.45 104.49 50.14 103.95 51.18 103.06 50.72 102.83 51.26 103.68 51.72 102.71 53.51 103.28 53.78"/>
        <path class="cls-7" d="m97.63,55.38c1.93-2.73,4.89-1.51,4.89-1.51l-1.67,3.26-3.22-1.74Z"/>
        <path class="cls-7" d="m103.16,54.29s2.88,1.89,1.59,4.92l-3.26-1.74,1.67-3.18Z"/>
        <path class="cls-7" d="m97.26,55.92c-1.06,1.99-.31,4.46,1.68,5.53,1.99,1.06,4.46.31,5.52-1.68"/>
        <path class="cls-8" d="m73.83,43.25v12.14h-3.41s1.73-6.05-1.82-9.31l1.41-2.96s.75.77,3.82.13Z"/>
        <path class="cls-13" d="m73.84,53.74v-1.48s-3.02,0-3.02,0c0,0-.01,1.19-.11,1.46l3.13.02Z"/>
        <path class="cls-13" d="m73.83,49.31v1.44h-3.07s-.17-1.16-.26-1.43h3.33Z"/>
        <path class="cls-13" d="m73.83,47.73v-1.47h-5.04s.94,1.15,1.06,1.48h3.97Z"/>
        <path class="cls-13" d="m73.83,44.71v-1.47s-2.88.57-3.82-.13l-.76,1.6h4.59Z"/>
        <path class="cls-14" d="m70.42,55.38s-.92,2.77-1.89,4.51c0,0-.07.83.17,1.58,0,0,.21,1.55,2.59,3.9,0,0,.03.11.86.59,0,0,1.25.67,2.21.8v-11.36h-3.94Z"/>
        <g>
          <path class="cls-7" d="m70.66,55.57h3.48v10.96s-2.07-.26-3.75-2.41c0,0-1.68-1.78-1.62-4.06,0,0,.59-1.52.89-2.05,0,0,.83-2.01.83-2.45h.17Z"/>
          <path class="cls-5" d="m72.31,55.95s.22.36.22.36c.19.34-.01.56-.01.56.1-.14.32-.1.32-.1.49.18.26.61.26.61-.06.13-.18.1-.18.1-.09-.02-.02-.16-.02-.16.04-.21-.18-.16-.18-.16-.22.07-.17.45-.17.45,0,0,.16.06.13.17-.03.11-.14.09-.14.09,0,0-.1.04-.03.13,0,0,.07.14.15.01,0,0,.06-.24.14,0,0,0,.06.11-.04.24,0,0-.06.05-.3.06,0,0-.16.12-.16.18h-.03c0-.06-.15-.19-.15-.19-.24-.02-.3-.06-.3-.06-.09-.14-.03-.24-.03-.24.07-.23.13,0,.13,0,.08.13.15,0,.15,0,.07-.09-.03-.13-.03-.13,0,0-.11.02-.13-.09-.03-.11.13-.17.13-.17,0,0,.05-.38-.17-.45,0,0-.23-.06-.19.15,0,0,.06.14-.02.16,0,0-.12.03-.18-.1,0,0-.22-.43.27-.61,0,0,.23-.04.32.1,0,0-.2-.22,0-.55,0,0,.18-.33.22-.36"/>
          <path class="cls-5" d="m70.59,57.67s.22.36.22.36c.19.34-.01.55-.01.55.1-.14.32-.1.32-.1.49.18.26.61.26.61-.06.13-.18.1-.18.1-.09-.02-.02-.16-.02-.16.04-.21-.18-.16-.18-.16-.22.07-.17.45-.17.45,0,0,.16.06.13.17-.03.11-.14.09-.14.09,0,0-.1.04-.04.13,0,0,.07.14.16.01,0,0,.06-.24.13,0,0,0,.06.11-.04.24,0,0-.06.05-.3.06,0,0-.16.12-.16.18h-.03c0-.06-.16-.19-.16-.19-.24-.02-.3-.07-.3-.07-.09-.13-.03-.24-.03-.24.08-.23.14,0,.14,0,.08.13.15,0,.15,0,.06-.09-.03-.13-.03-.13,0,0-.11.02-.14-.09-.03-.11.14-.17.14-.17,0,0,.05-.38-.17-.45,0,0-.23-.06-.19.16,0,0,.06.14-.02.16,0,0-.12.03-.18-.1,0,0-.22-.43.27-.61,0,0,.23-.04.32.1,0,0-.2-.22,0-.56,0,0,.18-.33.22-.35"/>
          <path class="cls-5" d="m72.31,59.33s.22.36.22.36c.19.34-.01.55-.01.55.1-.14.32-.1.32-.1.49.18.26.61.26.61-.06.13-.18.1-.18.1-.09-.02-.02-.16-.02-.16.04-.21-.18-.16-.18-.16-.22.07-.17.45-.17.45,0,0,.16.06.13.17-.03.11-.14.09-.14.09,0,0-.1.04-.03.13,0,0,.07.14.15.01,0,0,.06-.24.14,0,0,0,.06.11-.04.24,0,0-.06.05-.3.06,0,0-.16.12-.16.18h-.03c0-.06-.15-.19-.15-.19-.24-.02-.3-.06-.3-.06-.09-.14-.03-.24-.03-.24.07-.23.13,0,.13,0,.08.13.15-.01.15-.01.07-.09-.03-.13-.03-.13,0,0-.11.02-.13-.09-.03-.11.13-.17.13-.17,0,0,.05-.38-.17-.45,0,0-.23-.06-.19.15,0,0,.06.14-.02.16,0,0-.12.03-.18-.1,0,0-.22-.43.27-.61,0,0,.23-.04.32.1,0,0-.2-.22,0-.56,0,0,.18-.33.22-.35"/>
          <path class="cls-5" d="m70.57,60.9s.22.36.22.36c.19.34,0,.56,0,.56.09-.14.32-.1.32-.1.49.18.26.61.26.61-.06.13-.18.1-.18.1-.09-.02-.02-.16-.02-.16.04-.21-.18-.16-.18-.16-.22.07-.17.45-.17.45,0,0,.16.06.13.17-.03.11-.14.09-.14.09,0,0-.1.04-.04.13,0,0,.07.14.15.01,0,0,.06-.24.14,0,0,0,.06.11-.04.24,0,0-.06.05-.3.06,0,0-.15.12-.16.18h-.03c0-.06-.15-.19-.15-.19-.24-.02-.3-.07-.3-.07-.09-.13-.03-.24-.03-.24.08-.23.13,0,.13,0,.08.13.16,0,.16,0,.06-.09-.03-.13-.03-.13,0,0-.11.02-.13-.09-.03-.11.13-.17.13-.17,0,0,.05-.38-.17-.45,0,0-.23-.06-.19.15,0,0,.06.14-.02.16,0,0-.12.03-.18-.1,0,0-.22-.43.27-.61,0,0,.23-.04.32.1,0,0-.2-.22,0-.55,0,0,.18-.33.22-.35"/>
          <path class="cls-5" d="m72.29,62.72s.22.36.22.36c.19.34-.01.56-.01.56.1-.14.32-.1.32-.1.49.18.26.61.26.61-.06.13-.18.1-.18.1-.09-.02-.02-.16-.02-.16.04-.21-.18-.16-.18-.16-.22.07-.17.45-.17.45,0,0,.16.06.13.17-.03.11-.14.09-.14.09,0,0-.1.04-.03.13,0,0,.07.14.15.01,0,0,.06-.24.13,0,0,0,.06.11-.04.24,0,0-.06.05-.3.06,0,0-.16.12-.16.18h-.03c0-.06-.15-.19-.15-.19-.24-.02-.3-.07-.3-.07-.09-.13-.03-.24-.03-.24.07-.23.13,0,.13,0,.08.13.15,0,.15,0,.06-.09-.03-.13-.03-.13,0,0-.11.02-.13-.09-.03-.11.13-.17.13-.17,0,0,.05-.38-.17-.45,0,0-.23-.06-.19.15,0,0,.07.14-.02.16,0,0-.12.03-.18-.1,0,0-.22-.43.27-.61,0,0,.23-.04.32.1,0,0-.2-.22,0-.55,0,0,.18-.33.22-.35"/>
          <path class="cls-5" d="m74.15,63.51s-.13.11-.13.17h-.03c0-.06-.16-.19-.16-.19-.24-.02-.3-.06-.3-.06-.09-.14-.03-.24-.03-.24.07-.23.14,0,.14,0,.08.13.15,0,.15,0,.06-.09-.03-.13-.03-.13,0,0-.11.02-.14-.09-.03-.11.14-.17.14-.17,0,0,.05-.38-.17-.45,0,0-.23-.06-.19.15,0,0,.06.15-.02.16,0,0-.12.03-.18-.1,0,0-.22-.43.27-.61,0,0,.23-.04.32.1,0,0-.19-.22,0-.56,0,0,.3-.42.35-.44"/>
        </g>
        <path class="cls-7" d="m79.01,21.35v.63h-.61s.13-.52.61-.63Z"/>
        <path class="cls-7" d="m79.43,21.98v-.64s.52.05.7.64h-.7Z"/>
        <path class="cls-11" d="m78.39,22.4h1.73s-.12.69-.86.69c0,0-.87-.02-.87-.69Z"/>
        <path class="cls-5" d="m87.72,61.88c-.24-.03-.18.17-.18.17-.01.18.12.41.12.41.13.32-.19.26-.19.26-.22-.04-.61-.48-.61-.48-.4.11-.63-.03-.63-.03-.39-.2-.12-.29-.12-.29.54-.11.89-.51.89-.51.11-.11.04-.14.04-.14-.27-.19-.01-.26-.01-.26.38-.24.31-.51.31-.51,0-.27-.17-.04-.17-.04l-.02.16c-.32.42-.28-.11-.28-.11.14-.41.06-.77.06-.77-.11-.31-.31-.9-.31-.9-.22-1.1.3-1.1.3-1.1.54.01.87.84.87.84l.05.12.07-.12s.32-.83.87-.85c0,0,.52,0,.3,1.1,0,0-.2.59-.31.9,0,0-.09.36.06.77,0,0,.04.53-.28.11l-.02-.16s-.17-.22-.17.04c0,0-.07.27.31.51,0,0,.25.07-.01.25,0,0-.07.03.04.15,0,0,.34.4.89.51,0,0,.27.09-.12.29,0,0-.23.14-.63.03,0,0-.39.43-.61.48,0,0-.32.07-.19-.25,0,0,.13-.23.12-.41,0,0,.1-.21-.14-.18h-.28Zm.12-.16c.07,0,.13-.17.13-.38s-.06-.38-.13-.38-.13.17-.13.38.06.38.13.38Z"/>
        <path class="cls-5" d="m74.16,59.98s-.13.11-.13.17h-.03c0-.06-.15-.19-.15-.19-.24-.02-.3-.07-.3-.07-.09-.13-.03-.24-.03-.24.07-.23.13,0,.13,0,.08.13.15,0,.15,0,.07-.09-.03-.13-.03-.13,0,0-.11.02-.13-.09-.03-.11.13-.17.13-.17,0,0,.05-.38-.17-.45,0,0-.23-.06-.19.15,0,0,.06.15-.02.16,0,0-.12.03-.18-.1,0,0-.22-.43.27-.61,0,0,.23-.04.32.1,0,0-.2-.22,0-.56,0,0,.3-.42.35-.44"/>
      </g>
      <g>
        <path class="cls-16" d="m22.77,85.01l6.05-.77.04,16.18s.07,5.06,4.84,4.99c0,0,5.25.48,5.28-4.99v-16.22h1.94v16.22s.55,6.57-7.23,6.35c0,0-7.67.7-7.67-6.35v-12.99s.33-1.83-3.3-1.83l-.07-.62"/>
        <path class="cls-16" d="m48.12,106.33h-1.69v-19.52s.04-1.98-3.3-2.06v-.59h6.53l10.46,18.12v-18.05h1.69v22.12h-2.53l-11.12-19.26-.04,19.22Z"/>
        <path class="cls-16" d="m70.5,84.2v22.16h-2.82v-18.93s.44-1.8-3.23-1.83v-.59l6.05-.81Z"/>
        <path class="cls-16" d="m90.71,88.75h-3.23s-.15-3.38-3.82-3.38c0,0-3.33.1-4.5,3.03,0,0-1.76,4.01-.34,10.57,0,0,1.17,5.63,5.92,6.11,0,0,2.99.59,5.92-.68v1.37s-2.69,1.32-6.26,1.03c0,0-3.08.15-5.53-2.15,0,0-2.93-2.54-3.33-5.72,0,0-.93-2.98-.44-6.75,0,0,.29-6.65,6.11-8.07,0,0,3.42-.68,6.21.39,0,0,2.89.98,3.28,4.26Z"/>
        <path class="cls-16" d="m96.05,84.25h5.63l8.46,22.06h-3.18l-2.79-7.24h-8.27l-2.54,7.29h-2.1l7.29-19.57s.54-1.47-2.35-2.01l-.15-.54Zm4.01,3.62l-3.67,9.88h7.39l-3.52-9.83-.2-.05Z"/>
        <path class="cls-16" d="m134.1,106.31v-22.11h-4.01l-6.55,18.93-6.6-18.88h-7.09v.54s3.23.05,3.23,2.3v19.22h1.66v-20.3l6.94,20.3h2.54l6.99-20.35v20.35h2.89Z"/>
      </g>
    </g>
  </g>
  <path class="cls-16" d="m197.04,59.35v-12.06c0-4.97-.62-5.85-4.97-6.06v-.88h12.11v.88c-3.47.21-4.76,1.5-4.76,4.71l.21,22.93c0,1.5.47,1.71,2.38,1.29l1.09-.21v1.09l-6.94,2.17v-3.93c-2.59,2.59-6.26,4.14-12.06,4.14-9.94,0-14.91-5.64-14.91-13.2v-15.12c0-3.26-1.09-3.68-4.56-3.88v-.88h13.41v.88h-.47c-3,0-4.09.83-4.09,3.88v14.44c0,6.06,3,10.2,9.06,11.03-.41-.62-.83-1.71-.83-2.8v-11.44c0-1.29-.21-1.97-1.29-2.17l-1.97-.42v-.88l6.68-1.5v14.7c0,2.12,1.35,3.68,2.85,4.3.62,0,1.29-.21,1.91-.41,4.14-1.09,7.14-4.09,7.14-10.61Z"/>
  <path class="cls-16" d="m221.55,54.32v16.08c0,.92.63,1.37,2,1.37h.96v.78h-8.06v-.78c1.11,0,1.7-.15,2.18-.63.63-.74.44-12.02.44-16.97,0-2.92-1.37-3.85-2.92-3.85-1.22,0-2.92.92-4.92,2.48v15.9c0,2.63.59,3.07,3.7,3.07v.78h-8.91v-.78h.15c2.18,0,2.96-.78,2.96-2.48v-18.19c-.78-.63-1.89-.78-3.11-.92v-.63l5.21-.15v2.29c2.44-1.52,4.62-2.92,6.32-2.92,2.63,0,3.99,1.85,3.99,5.55Z"/>
  <path class="cls-16" d="m228.21,72.55v-.78c2.33,0,2.81-.63,2.81-3.07v-15.75c0-2-.63-2.63-2.81-2.77v-.63h9.13v.63c-2.33,0-3.25.59-3.25,3.07v15.6c0,2.29.63,2.92,3.25,2.92v.78h-9.13Zm5.88-27.03c0,.78-.78,1.4-1.55,1.4-.92,0-1.7-.63-1.7-1.4s.78-1.37,1.7-1.37c.78,0,1.55.59,1.55,1.37Z"/>
  <path class="cls-16" d="m252.42,52.18l3.55,8.32,2.33-6.47c.44-.92.59-1.7.59-2.33,0-1.07-.92-1.52-3.4-1.52v-.63h8.65v.63c-2,0-2.92.92-3.85,3.22l-7.73,19.78h-1.85l-8.02-20.08c-.92-2.33-1.4-2.92-3.55-2.92v-.63l15.27-.15v.78c-2.29,0-2.92.3-2,2Zm0,17.12l2.33-5.55-5.1-11.57c-.48-1.07-.78-1.85-1.55-1.85-2.77,0-2.92.92-2.33,2.48l6.66,16.49Z"/>
  <path class="cls-16" d="m272.68,61.27v7.43c0,1.7.63,2.29,1.89,2.29h2.44c2.03-.3,3.4-1.22,4.81-2.77l.44.48c-1.51,1.85-3.99,3.85-6.62,3.85h-10.65v-.78h1.07c2.92,0,3.55-.78,3.55-2.92v-15.75c0-2-.63-2.92-3.11-2.92h-.74v-.63h17.75l.3,5.1h-.63c-.44-3.11-1.37-3.88-2.77-3.88h-7.73v5.88c.92-.63,2.33-1.07,3.73-1.07,4.92,0,4.77,3.7,5.99,4.92v.78h-9.72,6.17-6.17Zm2.96-4.92c-.78,0-2.96.74-2.96,1.7v2.29h6.66c-.3-2.48-1.85-3.99-3.7-3.99Z"/>
  <path class="cls-16" d="m286.73,50.18v-.63c1.55,0,6.95-.3,9.28-.3,6.95,0,9.87,2.77,9.87,6.47,0,2.77-1.85,5.1-4.77,6.03,1.22,1.07,2.44,2.14,4.14,3.85l2.96,2.92c2.14,2.18,4.47,3.55,7.25,3.73v.78c-6.47.3-8.17-1.26-11.42-4.51l-2.48-2.44c-1.55-1.55-2.92-2.63-3.84-3.25h-4.33v6.17c0,2.33.93,2.77,2.92,2.77h-1.99c-1.85.15-2.33-.44-2.33-2v-8.36c0-1.59,1.55-3.7,3.55-3.7.89,0,2.29.59,3.1.93l-.85,2.51c-.52-.44-1.07-.81-1.85-1.11-.48-.15-1.18-.3-1.55-.15-.7.3-1.04,1-1.07,2.29h2.4c3.99,0,6.77-1.7,6.77-6.18,0-3.55-1.52-6.17-7.25-6.17l-8.51.33Z"/>
  <path class="cls-16" d="m327.59,49.41v3.4h-.63c-.3-1.85-1.07-3.11-2.62-3.11-2.29,0-3.7,1.55-3.7,3.55,0,5.4,11.87,6.8,11.87,13.61,0,3.55-3.07,6.32-7.54,6.32-1.4,0-2.33-.78-2.62-.78s-.48.15-.63.44h-.63l-.3-4.14h.48c.44,2.15,1.85,3.55,3.37,3.37,2.48,0,5.1-1.37,5.1-4.29,0-5.44-11.87-6.95-11.87-13.46,0-3.07,2.92-5.4,6.62-5.4,1.11,0,2.18.15,3.11.48Z"/>
  <path class="cls-16" d="m335.46,72.55v-.78c2.33,0,2.81-.63,2.81-3.07v-15.75c0-2-.63-2.63-2.81-2.77v-.63h9.13v.63c-2.33,0-3.25.59-3.25,3.07v15.6c0,2.29.63,2.92,3.25,2.92v.78h-9.13Zm5.88-27.03c0,.78-.78,1.4-1.55,1.4-.92,0-1.7-.63-1.7-1.4s.78-1.37,1.7-1.37c.77,0,1.55.59,1.55,1.37Z"/>
  <path class="cls-16" d="m346.76,54.37l.22-6.28h20.89l.2,6.28h-.89c-.43-1.97-.98-3.26-1.65-3.85-.67-.6-2.07-.89-4.22-.89h-2.06v18.92c0,1.43.22,2.32.67,2.66.45.34,1.42.57,2.92.68v.67h-10.78v-.67c1.56-.12,2.54-.38,2.92-.78.39-.4.58-1.4.58-3v-18.49h-2.06c-2.05,0-3.44.3-4.18.89-.74.59-1.3,1.88-1.67,3.86h-.9Z"/>
  <path class="cls-16" d="m377.24,62.35l-2.18,5.73c-.3.74-.78,1.85-.78,2.44,0,.92.92,1.26,3.11,1.26h.44v.78h-8.47v-.78c2.48,0,2.77-.33,3.99-3.55l7.1-19.64c0-1.07,0-2-.59-2.63-.48-.59-1.26-1.07-2.18-1.07-1.07,0-2.15.92-2.15,1.7,0,.33,0,.48.15.78l-2.62,1.22v-.44c0-1.4,3.07-4.33,5.4-4.33,1.07,0,2.92.48,3.85,1.85.63.92.63,1.41.63,3.25l7.73,20.52c.77,2,1.55,2.33,3.4,2.33.59,0,1.07,0,2-.78l.15.63c-1.99,1.52-3.07,2-3.7,2-.93,0-3.07,0-3.85-2.33l-3.73-8.95h-7.69Zm.59-1.7h6.36l-3.25-8.65-3.11,8.65Z"/>
  <path class="cls-16" d="m261.34,93.36v-6.32c0-2.33-.59-3.11-2.77-3.11h-.78v-.63c1.41-.15,3.11-.15,5.25-.3h6.18c9.73,0,14.05,4.96,14.05,10.98,0,5.69-4.33,12.35-13.57,12.35h-11.91v-.78l.63.15c1.22.3,2,.15,2.33-.78-1.26-1.22-1.85-3.25-1.85-5.25,0-2.63.74-4.77,2.44-6.32Zm6.8,12.35c.92,0,1.7-.15,2.33-.15v-1.41c-.78.63-1.7,1.07-2.33,1.55Zm6.32-1.07c.63-.48,1.41-1.11,2.33-2.03,1.37-1.37,3.07-4.14,3.07-8.02,0-2.77-.78-5.69-2.92-7.87-.92-.92-2.14-1.85-4.03-2.29v18.97c0,1.26.63,1.55,1.55,1.26Zm-7.1-21c-1.55,0-2.48.15-2.92.15.15,0,0,7.88.15,7.88.78-.15,1.4-.48,2.33-.48,1.07,0,2.63.33,3.55.78v-7.25c0-.63-.92-1.07-3.11-1.07Zm-1.22,8.65c-2.96,0-4.81,2.62-4.81,5.99,0,3.73,2.18,6.95,4.81,6.95,1.07,0,2.77-.78,4.33-1.85v-8.32c-1.26-2.03-2.63-2.77-4.33-2.77Z"/>
  <path class="cls-16" d="m287.33,105.86v-.78c2.33,0,2.81-.63,2.81-3.07v-15.75c0-2-.63-2.63-2.81-2.77v-.63h9.13v.63c-2.33,0-3.25.59-3.25,3.07v15.6c0,2.29.63,2.92,3.25,2.92v.78h-9.13Zm5.88-27.03c0,.78-.78,1.41-1.55,1.41-.92,0-1.7-.63-1.7-1.41s.78-1.37,1.7-1.37c.78,0,1.55.59,1.55,1.37Z"/>
  <path class="cls-16" d="m325.59,81.25c-2.38,0-2.59-3.26-6.26-3.05-7.35.88-11.91,6.94-11.91,14.7,0,9.53,6.94,16.46,14.7,16.46,4.14,0,9.11-1.55,12.79-7.82h.82c-.62,2.38-1.92,5.64-3.21,7.56-3.47-.42-5.64,1.55-11.7,1.55-10.56,0-18.12-6.94-18.12-16.67s7.77-17.29,18.59-17.29c3.21,0,5.8,1.29,5.8,3.05,0,.83-.62,1.5-1.5,1.5Z"/>
  <path class="cls-16" d="m341.48,99.57l-2.18,5.73c-.3.74-.78,1.85-.78,2.44,0,.92.92,1.26,3.11,1.26h.45v.78h-8.47v-.78c2.48,0,2.77-.33,3.99-3.55l7.1-19.63c0-1.07,0-2-.59-2.63-.48-.59-1.26-1.07-2.18-1.07-1.07,0-2.14.92-2.14,1.7,0,.33,0,.48.15.78l-2.63,1.22v-.44c0-1.41,3.07-4.33,5.4-4.33,1.07,0,2.92.48,3.85,1.85.63.92.63,1.41.63,3.25l7.73,20.52c.78,2,1.55,2.33,3.4,2.33.59,0,1.07,0,2-.78l.15.63c-2,1.52-3.07,2-3.7,2-.92,0-3.07,0-3.85-2.33l-3.73-8.95h-7.69Zm.59-1.7h6.36l-3.26-8.65-3.1,8.65Z"/>
  <path class="cls-16" d="m378.13,90.33v8.5c0,1.85.48,2.29,2.33,2.29v.63h-7.58v-.63c2.03,0,2.81-.78,2.81-2.92v-6.8c0-2.29-1.41-3.22-2.81-3.22-.92,0-2.62.59-5.07,2.29l-.92,16.2c-.18,1.89,1.22,2.33,2.92,2.33v.78h-7.73v-.78c2.77,0,3.11-.44,3.25-3.84l.92-14.53c.15-2.29,0-3.07-2.33-3.22v-.63h3.88v2.92c2.78-1.85,5.25-2.92,6.77-2.92,1.85,0,3.11,1.07,3.55,2.92,2.48-1.52,4.66-2.92,6.51-2.92h5.4v.63c-1.7.15-2.48.15-2.33,1.52l1.07,16.68c.33,3.4.63,3.4,3.25,3.4v.78h-9.43v-.78c1.7,0,3.4-.44,3.25-2.33l-1.07-16.64h-.15c-.19-.48.3-1.85-1.55-1.85-1.07,0-2.62.59-4.96,2.15Z"/>
  <path class="cls-16" d="m402.24,98.5v7.43c0,1.7.63,2.29,1.89,2.29h2.44c2.03-.3,3.4-1.22,4.81-2.77l.44.48c-1.52,1.85-3.99,3.85-6.62,3.85h-10.65v-.78h1.07c2.92,0,3.55-.78,3.55-2.92v-15.75c0-2-.63-2.92-3.11-2.92h-.74v-.63h17.75l.3,5.1h-.63c-.44-3.11-1.37-3.88-2.77-3.88h-7.73v5.88c.92-.63,2.33-1.07,3.73-1.07,4.92,0,4.77,3.7,5.99,4.92v.78h-9.73,6.18-6.18Zm2.96-4.92c-.77,0-2.96.74-2.96,1.7v2.29h6.66c-.3-2.48-1.85-3.99-3.7-3.99Z"/>
  <path class="cls-16" d="m416.28,87.41v-.63c1.55,0,6.95-.3,9.28-.3,6.95,0,9.87,2.77,9.87,6.47,0,2.77-1.85,5.1-4.77,6.03,1.22,1.07,2.44,2.14,4.14,3.85l2.96,2.92c2.14,2.18,4.47,3.55,7.25,3.73v.78c-6.47.3-8.17-1.26-11.42-4.51l-2.48-2.44c-1.55-1.55-2.92-2.63-3.85-3.25h-4.33v6.18c0,2.33.92,2.77,2.92,2.77h-2c-1.85.15-2.33-.44-2.33-2v-8.36c0-1.59,1.55-3.7,3.55-3.7.89,0,2.29.59,3.11.92l-.85,2.51c-.52-.44-1.07-.81-1.85-1.11-.48-.15-1.18-.3-1.55-.15-.7.3-1.04,1-1.07,2.29h2.4c4,0,6.77-1.7,6.77-6.17,0-3.55-1.52-6.18-7.25-6.18l-8.5.33Z"/>
  <path class="cls-16" d="m448.01,109.78v-.78c2.33,0,2.81-.63,2.81-3.07v-15.75c0-2-.63-2.63-2.81-2.77v-.63h9.13v.63c-2.33,0-3.25.59-3.25,3.07v15.6c0,2.29.63,2.92,3.25,2.92v.78h-9.13Zm5.88-27.03c0,.78-.78,1.41-1.55,1.41-.92,0-1.7-.63-1.7-1.41s.78-1.37,1.7-1.37c.77,0,1.55.59,1.55,1.37Z"/>
  <path class="cls-16" d="m475.03,91.55v16.08c0,.92.63,1.37,2,1.37h.96v.78h-8.06v-.78c1.11,0,1.7-.15,2.18-.63.63-.74.45-12.02.45-16.97,0-2.92-1.37-3.85-2.92-3.85-1.22,0-2.92.92-4.92,2.48v15.9c0,2.63.59,3.07,3.7,3.07v.78h-8.91v-.78h.15c2.18,0,2.96-.78,2.96-2.48v-18.19c-.78-.63-1.89-.78-3.11-.92v-.63l5.21-.15v2.29c2.44-1.52,4.62-2.92,6.32-2.92,2.62,0,3.99,1.85,3.99,5.55Z"/>
  <path class="cls-16" d="m481.98,98.83c0-7.43,5.73-12.68,13.61-12.68,6.95,0,12.94,4.81,12.94,11.43,0,7.58-5.99,12.83-13.13,12.83s-13.42-4.66-13.42-11.57Zm3.55-1.26c0,6.95,4.66,11.9,10.65,11.9s8.99-5.4,8.99-10.65c0-6.8-4.51-11.76-10.5-11.76-6.51,0-9.13,6.03-9.13,10.5Zm17.6.63c0,4.33-3.4,7.73-7.87,7.73s-8.02-3.4-8.02-7.73c0-5.1,4.03-7.87,7.88-7.87,4.62,0,8.02,3.4,8.02,7.87Zm-2.77.92c0-4.33-2.62-7.88-5.69-7.88-2.48,0-4.66,2.48-4.66,5.69,0,4.51,2.48,8.06,5.73,8.06,2.15,0,4.62-2.18,4.62-5.88Z"/>
  <line class="cls-4" x1="380.94" y1="41.11" x2="387.79" y2="47.96"/>
</svg>